<svg width="64" height="64" viewBox="0 0 64 64" fill="none" xmlns="http://www.w3.org/2000/svg">
<path d="M32.0062 38.5534C33.1782 39.5442 33.757 40.9044 34.0612 42.4418C36.4641 40.7124 38.4754 38.7307 39.8359 36.276C39.6481 35.5956 39.2711 35.0637 38.736 34.6643C36.9555 36.6166 34.5963 37.7405 32.0062 38.5534Z" fill="#ED1C24"/>
<path d="M20.066 42.6795L20.2836 42.4574C20.5733 42.1616 20.8623 41.8659 21.1513 41.5702C20.8478 41.5555 20.5435 41.5408 20.2545 41.5261L19.9509 41.5113L19.8643 41.2303C19.5746 40.4021 19.4734 39.7812 19.4304 38.9978C18.4171 39.3972 17.2305 39.8555 15.8555 40.4469C12.686 41.7776 13.0333 49.0373 12.5121 52.2165H26.2898C23.7136 49.5404 21.7453 46.3612 20.1969 42.9605L20.066 42.6795Z" fill="#ED1C24"/>
<path d="M40.328 18.9468C35.1611 16.1376 28.8368 16.1376 23.6699 18.9468C23.453 20.2033 23.5978 21.4162 24.1038 22.5549C27.7508 20.9138 36.1308 20.8543 39.8941 22.5549C40.4001 21.4162 40.5595 20.204 40.328 18.9468Z" fill="#ED1C24"/>
<path d="M39.7203 22.969C39.3731 22.8211 38.9967 22.6733 38.5767 22.5548L38.5483 22.5401C38.4901 22.5254 38.4326 22.5107 38.3744 22.496L38.3598 22.4812C35.9285 21.8008 32.8457 21.653 30.3416 21.7861C29.8932 21.8156 29.4447 21.845 28.9957 21.8898C27.7509 22.0082 26.4195 22.2297 25.2184 22.6144C24.9578 22.7034 24.6972 22.7917 24.4657 22.8807V22.8954C24.4075 22.9101 24.3354 22.9395 24.2772 22.969L24.1178 23.0432C24.2626 27.2722 24.6244 30.8207 26.4334 33.1128C26.2601 33.7337 26.1007 34.2515 25.8976 34.7098C26.0134 34.8135 26.1152 34.9172 26.2303 35.0203C26.4618 34.5472 26.6212 34.0301 26.7661 33.5123C27.9235 34.7687 29.5883 35.5675 32.005 35.8037C34.4073 35.5669 36.072 34.7687 37.2295 33.5123C37.3743 34.0294 37.5331 34.5472 37.7652 35.0203C37.881 34.9172 37.9821 34.8135 38.0979 34.7098C37.8955 34.2515 37.7361 33.7344 37.5622 33.1128C39.3711 30.8207 39.7335 27.2722 39.8777 23.0432L39.7203 22.969ZM39.1125 27.5378C38.8519 29.4305 38.3598 31.5005 37.115 32.9938C35.7982 34.5466 33.9456 35.1674 32.0064 35.3601C30.0526 35.1674 28.2 34.5466 26.897 32.9938C25.6384 31.5005 25.1463 29.4305 24.885 27.5378C24.6972 26.2218 24.6099 24.8757 24.5523 23.5156C24.7547 23.9297 24.9717 24.3284 25.2323 24.6984C25.6086 25.2009 26.0431 25.4671 26.651 25.4819C27.0558 25.4819 27.4327 25.3782 27.823 25.231H27.8375L27.9242 25.2015C31.5718 23.8113 33.6413 24.7138 36.7526 25.4089L36.8101 25.4237C37.0562 25.4678 37.3022 25.4972 37.5483 25.4678C38.1706 25.3788 38.5324 25.039 38.8797 24.5211C39.0966 24.2107 39.2699 23.8702 39.4438 23.5156C39.3876 24.8764 39.3003 26.2218 39.1125 27.5378Z" fill="#ED1C24"/>
<path d="M23.5105 22.2297C23.1342 21.1359 23.033 20.0119 23.2499 18.8585L23.279 18.6518L23.4675 18.5481C28.7502 15.6645 35.2485 15.6645 40.5304 18.5481L40.7189 18.6518L40.7474 18.8585C40.965 20.0119 40.8631 21.1359 40.4868 22.2297C46.8111 22.5997 45.2191 17.0099 41.0946 14.3786C35.6526 10.9184 28.3441 10.9184 22.9027 14.3786C18.7782 17.0099 17.1862 22.599 23.5105 22.2297Z" fill="#ED1C24"/>
<path d="M24.1765 36.2767C25.5225 38.7307 27.5345 40.7124 29.9367 42.4425C30.2403 40.9051 30.819 39.5442 32.0062 38.5541C29.401 37.7412 27.0424 36.6172 25.2619 34.6657C24.7268 35.0637 24.3498 35.5963 24.1765 36.2767Z" fill="#ED1C24"/>
<path d="M41.8474 41.1855C42.4843 41.1413 43.1067 41.1119 43.7291 41.0818C44.0617 40.1204 44.1199 39.5591 44.149 38.3468C43.0491 37.9032 41.9638 37.4449 40.8639 37.0014C39.6191 42.2947 37.998 47.0556 35.9 52.2165C36.3055 52.2165 36.6964 52.2165 37.1011 52.2165C39.7209 49.5992 41.7614 46.3906 43.4116 42.7677C42.8897 42.2359 42.3685 41.7033 41.8474 41.1855Z" fill="#ED1C24"/>
<path d="M48.1432 40.4462C46.7681 39.8548 45.5816 39.3965 44.5683 38.9971C44.5253 39.7805 44.4234 40.4021 44.1344 41.2297L44.0478 41.5107L43.7442 41.5254C43.4545 41.5401 43.1509 41.5548 42.8473 41.5695C43.137 41.8652 43.426 42.161 43.7151 42.4567L43.9327 42.6788L43.8024 42.9591C42.254 46.3598 40.2857 49.539 37.7095 52.2152H51.4879C50.9654 49.0373 51.3126 41.7769 48.1432 40.4462Z" fill="#ED1C24"/>
<path d="M39.9518 36.9565C38.5331 39.3222 36.5217 41.2149 34.3074 42.8119L33.7571 43.1966L33.6268 42.5309C33.5977 42.3536 33.5547 42.1609 33.511 41.9836C33.3232 42.102 33.1929 42.191 33.1492 42.2646C33.019 42.4419 33.0772 42.8413 33.1208 43.048C33.6565 46.0794 34.2062 49.1108 34.7558 52.1415L34.7704 52.2151H35.4364L35.5085 52.0525C37.4768 47.1733 39.1409 42.3235 40.3572 37.2074C40.2124 37.1197 40.0821 37.0308 39.9518 36.9565Z" fill="#ED1C24"/>
<path d="M19.8491 38.3468C19.8782 39.5591 19.9358 40.1211 20.2691 41.0818C20.8915 41.1112 21.5139 41.1407 22.1508 41.1855C21.6296 41.7027 21.1084 42.2352 20.5879 42.7677C22.2375 46.3906 24.2786 49.5992 26.8977 52.2165C27.3032 52.2165 27.694 52.2165 28.0988 52.2165C26.0002 47.0562 24.3791 42.2947 23.135 37.0014C22.049 37.4449 20.949 37.9032 19.8491 38.3468Z" fill="#ED1C24"/>
<path d="M30.8481 42.2653C30.8045 42.1917 30.6742 42.1027 30.4863 41.9843C30.4433 42.1616 30.3997 42.3543 30.3706 42.5315L30.2403 43.1972L29.69 42.8125C27.4756 41.2156 25.4636 39.3229 24.0456 36.9572C23.9153 37.0308 23.785 37.1197 23.6401 37.2081C24.8558 42.3241 26.5199 47.174 28.4889 52.0532L28.561 52.2158H29.227L29.2409 52.1422C29.7912 49.1108 30.3408 46.0794 30.8766 43.0487C30.9209 42.842 30.9784 42.4426 30.8481 42.2653Z" fill="#ED1C24"/>
<path d="M33.3813 41.54C33.1061 40.6382 32.6868 39.8253 32.0062 39.1449C31.3117 39.8253 30.8917 40.6382 30.6166 41.54C31.2244 41.8799 31.4843 42.1315 31.3111 43.1223C30.7608 46.1537 30.2112 49.1851 29.6754 52.2158C31.2238 52.2158 32.7728 52.2158 34.3211 52.2158C33.7854 49.1844 33.2357 46.153 32.6855 43.1223C32.5128 42.1321 32.7734 41.8806 33.3813 41.54Z" fill="#ED1C24"/>
</svg>
