<svg width="66" height="92" viewBox="0 0 66 92" fill="none" xmlns="http://www.w3.org/2000/svg">
<path d="M55.9588 42.583L56.4197 42.3892C56.5109 42.6062 56.5579 42.8392 56.5579 43.0746C56.5579 43.31 56.5109 43.5429 56.4197 43.7599C56.3284 43.9769 56.1948 44.1736 56.0267 44.3385C55.8587 44.5034 55.6595 44.6332 55.4408 44.7207C55.2233 44.8077 54.9907 44.8509 54.7565 44.8482H24.0612C23.599 44.8847 23.1398 44.7407 22.7816 44.4454C22.4168 44.1446 22.1864 43.7114 22.1421 43.2409C22.0977 42.7703 22.2432 42.3018 22.5457 41.9385C22.8481 41.5753 23.2826 41.3471 23.7533 41.3031C23.7533 41.3031 23.7534 41.3031 23.7534 41.3031L23.7999 41.801L55.9588 42.583ZM55.9588 42.583L56.4197 42.3892C56.3284 42.1722 56.1948 41.9755 56.0267 41.8106C55.8587 41.6457 55.6595 41.5159 55.4408 41.4284C55.2233 41.3415 54.9907 41.2982 54.7565 41.301H24.0613L55.9588 42.583ZM55.9588 58.8493L56.4197 59.0431C56.3284 59.2601 56.1948 59.4567 56.0267 59.6216C55.8587 59.7865 55.6595 59.9164 55.4408 60.0038C55.2233 60.0908 54.9907 60.1341 54.7565 60.1313H24.0612C23.599 60.1679 23.1398 60.0238 22.7816 59.7285C22.4168 59.4278 22.1864 58.9946 22.1421 58.524C22.0977 58.0534 22.2432 57.5849 22.5457 57.2216C22.8481 56.8585 23.2826 56.6302 23.7533 56.5863C23.7533 56.5863 23.7534 56.5863 23.7534 56.5863L23.7999 57.0841L55.9588 58.8493ZM55.9588 58.8493L56.4197 59.0431C56.5109 58.8261 56.5579 58.5931 56.5579 58.3577C56.5579 58.1223 56.5109 57.8893 56.4197 57.6723L55.9588 57.8661L56.4197 57.6723C56.3284 57.4553 56.1948 57.2587 56.0267 57.0938C55.8587 56.9289 55.6595 56.799 55.4408 56.7116C55.2233 56.6246 54.9907 56.5813 54.7565 56.5841H24.0613L55.9588 58.8493ZM23.7534 71.8694C23.2827 71.9133 22.8482 72.1416 22.5457 72.5048L22.9299 72.8247L22.5457 72.5048C22.2432 72.8681 22.0977 73.3366 22.1421 73.8072C22.1864 74.2778 22.4168 74.7109 22.7816 75.0117C23.1398 75.307 23.599 75.4511 24.0613 75.4145H54.7562C54.9905 75.4173 55.2232 75.374 55.4408 75.287C55.6595 75.1996 55.8587 75.0697 56.0267 74.9048C56.1948 74.7399 56.3284 74.5433 56.4197 74.3263C56.5109 74.1093 56.5579 73.8763 56.5579 73.6409C56.5579 73.4055 56.5109 73.1725 56.4197 72.9555C56.3284 72.7385 56.1948 72.5418 56.0267 72.3769C55.8587 72.2121 55.6595 72.0822 55.4407 71.9947C55.2232 71.9077 54.9905 71.8644 54.7562 71.8673H24.0613C23.9588 71.8591 23.8558 71.8599 23.7534 71.8694ZM23.7534 71.8694L23.7999 72.3673L23.7533 71.8695C23.7533 71.8695 23.7534 71.8694 23.7534 71.8694ZM64.998 23.9802L64.9981 23.9801L64.9923 23.9744L41.9524 1.04964L41.9525 1.04959L41.9466 1.04395C41.7771 0.880639 41.5767 0.752613 41.3573 0.667181L41.1762 1.13249L41.3573 0.667179C41.1398 0.582503 40.9078 0.54131 40.6745 0.545874H7.39997C3.60275 0.545874 0.5 3.62953 0.5 7.41386V83.8296C0.5 87.614 3.60275 90.6976 7.39997 90.6976H58.5997C62.3969 90.6976 65.4997 87.614 65.4997 83.8296V25.2494C65.5042 25.0163 65.4627 24.7846 65.3773 24.5676C65.2912 24.3485 65.1622 24.1489 64.998 23.9802ZM7.39997 4.09307H38.8998V25.2442C38.8998 25.7154 39.088 26.1668 39.4221 26.4992C39.7561 26.8315 40.2085 27.0178 40.6797 27.0178H61.9397V83.8296C61.9397 85.6899 60.4754 87.1504 58.5997 87.1504H7.39997C5.52425 87.1504 4.05999 85.6899 4.05999 83.8296V7.41386C4.05999 5.55361 5.52425 4.09307 7.39997 4.09307ZM42.4598 6.5869L59.4283 23.4706H42.4598V6.5869ZM13.7999 38.7538C11.4206 38.7538 9.45995 40.701 9.45995 43.0746C9.45995 45.4481 11.4206 47.3953 13.7999 47.3953C16.1793 47.3953 18.1399 45.4481 18.1399 43.0746C18.1399 40.701 16.1793 38.7538 13.7999 38.7538ZM13.7999 42.301C14.2482 42.301 14.5799 42.6346 14.5799 43.0746C14.5799 43.5145 14.2482 43.8482 13.7999 43.8482C13.3516 43.8482 13.0199 43.5145 13.0199 43.0746C13.0199 42.6346 13.3516 42.301 13.7999 42.301ZM13.7999 54.0369C11.4206 54.0369 9.45995 55.9841 9.45995 58.3577C9.45995 60.7313 11.4206 62.6785 13.7999 62.6785C16.1793 62.6785 18.1399 60.7313 18.1399 58.3577C18.1399 55.9841 16.1793 54.0369 13.7999 54.0369ZM13.7999 57.5841C14.2482 57.5841 14.5799 57.9178 14.5799 58.3577C14.5799 58.7977 14.2482 59.1313 13.7999 59.1313C13.3516 59.1313 13.0199 58.7977 13.0199 58.3577C13.0199 57.9178 13.3516 57.5841 13.7999 57.5841ZM13.7999 69.3201C11.4206 69.3201 9.45995 71.2673 9.45995 73.6409C9.45995 76.0144 11.4206 77.9617 13.7999 77.9617C16.1793 77.9617 18.1399 76.0144 18.1399 73.6409C18.1399 71.2673 16.1793 69.3201 13.7999 69.3201ZM13.7999 72.8673C14.2482 72.8673 14.5799 73.2009 14.5799 73.6409C14.5799 74.0808 14.2482 74.4145 13.7999 74.4145C13.3516 74.4145 13.0199 74.0808 13.0199 73.6409C13.0199 73.2009 13.3516 72.8673 13.7999 72.8673Z" fill="#E5E5E5" stroke="#E5E5E5"/>
</svg>
