<svg width="93" height="93" viewBox="0 0 93 93" fill="none" xmlns="http://www.w3.org/2000/svg">
<path d="M87.7184 33.7927V62.4948H68.8919L55.0245 44.556H25.6367V34.8967L49.0551 27.7211V5.09069H59.0653C60.0755 3.80278 61.1776 2.60687 62.5551 1.59494H12.4123C6.62657 1.59494 1.94287 6.28658 1.94287 12.0822V80.7094C1.94287 86.5051 6.62657 91.1967 12.4123 91.1967H80.9224C82.6674 91.1967 84.4122 90.7368 85.7898 90.0009C86.8 89.4489 87.8102 88.7129 88.5449 87.885C90.2898 86.0451 91.3 83.5613 91.3 80.8015V26.9852C90.3816 28.5491 89.0959 30.9409 87.7184 33.7927ZM25.5449 4.99872H45.4735V25.0533L25.5449 31.1249V4.99872ZM5.24897 11.9902C5.24897 8.12648 8.37145 4.99872 12.2286 4.99872H22.0551V44.556H5.24897V11.9902ZM5.24897 48.0517H53.1878L64.3918 62.4948H5.24897V48.0517ZM22.0551 87.609H12.2286C8.37145 87.609 5.24897 84.4812 5.24897 80.6175V65.9905H22.0551V87.609ZM46.2082 87.609H25.5449V65.9905H46.2082V87.609ZM80.7388 87.609H49.698V65.9905H67.1469L83.4939 87.057C82.6673 87.425 81.749 87.609 80.7388 87.609ZM87.7184 80.6175C87.7184 82.1814 87.1673 83.7452 86.249 84.8492L71.5551 65.9905H87.6265V80.6175H87.7184Z" fill="#E5E5E5" fill-opacity="0.7"/>
<path d="M87.2682 33.5752L87.2184 33.6783V33.7927V61.9948H69.1373L55.4201 44.2502L55.2699 44.056H55.0245H26.1367V35.2664L49.2016 28.1992L49.5551 28.0909V27.7211V5.59069H59.0653H59.3086L59.4587 5.39927C60.453 4.13169 61.5232 2.9734 62.8511 1.9979L64.0803 1.09494H62.5551H12.4123C6.34962 1.09494 1.44287 6.01124 1.44287 12.0822V80.7094C1.44287 86.7804 6.34962 91.6967 12.4123 91.6967H80.9224C82.7496 91.6967 84.5754 91.2166 86.0254 90.4419L86.0295 90.4397C87.0724 89.8699 88.1308 89.103 88.9133 88.2231C90.7451 86.2886 91.8 83.6831 91.8 80.8015V26.9852V25.1463L90.8688 26.732C89.9424 28.3096 88.6504 30.7137 87.2682 33.5752ZM87.1265 80.6175V81.1175H87.1983C87.1142 82.1706 86.7691 83.1939 86.2371 84.0204L72.5785 66.4905H87.1265V80.6175ZM26.0449 5.49872H44.9735V24.683L26.0449 30.4499V5.49872ZM5.74897 11.9902C5.74897 8.40182 8.64839 5.49872 12.2286 5.49872H21.5551V44.056H5.74897V11.9902ZM5.74897 48.5517H52.9428L63.3712 61.9948H5.74897V48.5517ZM21.5551 87.109H12.2286C8.64839 87.109 5.74897 84.2059 5.74897 80.6175V66.4905H21.5551V87.109ZM45.7082 87.109H26.0449V66.4905H45.7082V87.109ZM80.7388 87.109H50.198V66.4905H66.9021L82.6838 86.8287C82.0884 87.0144 81.4411 87.109 80.7388 87.109Z" stroke="#E5E5E5" stroke-opacity="0.7"/>
<path d="M60.0755 24.1343L73.3918 50.2604C73.6673 50.8124 74.1265 50.9044 74.3102 50.9044C74.402 50.9044 74.5857 50.9044 74.7694 50.8124C74.9531 50.7204 75.1367 50.6284 75.2286 50.3524C75.3204 50.1684 86.1571 29.1019 88.5449 24.2263C90.8408 19.5346 90.8408 14.475 88.5449 9.87529C87.1674 7.11549 85.0551 4.90761 82.5755 3.34372C80.0959 1.87183 77.1571 1.04388 74.3102 1.04388C71.9224 1.04388 69.4429 1.59587 67.1469 2.79178C63.3816 4.72365 60.5347 8.03542 59.249 12.1751C57.8714 16.0389 58.2387 20.4545 60.0755 24.1343ZM74.4021 7.85142C79.4531 7.85142 83.4939 11.8992 83.4939 16.9588C83.4939 22.0184 79.4531 26.0661 74.4021 26.0661C69.351 26.0661 65.3102 22.0184 65.3102 16.9588C65.3102 11.8992 69.351 7.85142 74.4021 7.85142Z" fill="#E5E5E5" fill-opacity="0.7"/>
<path d="M59.6281 24.3576L59.6281 24.3576L59.63 24.3613L72.9445 50.4837C72.9448 50.4844 72.9451 50.4851 72.9455 50.4857C73.3268 51.2476 73.9894 51.4044 74.3102 51.4044L74.318 51.4044C74.4212 51.4045 74.7031 51.4048 74.9933 51.2595L75.0068 51.2527C75.1948 51.1588 75.5261 50.9932 75.6891 50.5498L75.713 50.5032L75.8118 50.3106L76.174 49.6054L76.2161 49.5234C76.5231 48.9256 76.9476 48.0989 77.457 47.1066C78.5232 45.0294 79.9612 42.2263 81.4709 39.2765C84.489 33.3794 87.7976 26.889 88.9939 24.4462L88.994 24.446C91.3571 19.6171 91.3591 14.3936 88.9923 9.65199C87.5706 6.80384 85.3927 4.52941 82.8422 2.92081L82.8423 2.92066L82.8307 2.91377C80.2765 1.39758 77.25 0.543884 74.3102 0.543884C71.8466 0.543884 69.2878 1.11318 66.9173 2.34762C63.0383 4.33825 60.1022 7.75166 58.7746 12.017C57.3524 16.015 57.7363 20.5674 59.6281 24.3576ZM74.4021 8.35142C79.1761 8.35142 82.9939 12.1745 82.9939 16.9588C82.9939 21.7431 79.1761 25.5661 74.4021 25.5661C69.628 25.5661 65.8102 21.7431 65.8102 16.9588C65.8102 12.1745 69.628 8.35142 74.4021 8.35142Z" stroke="#E5E5E5" stroke-opacity="0.7"/>
</svg>
