<svg width="84" height="84" viewBox="0 0 84 84" fill="none" xmlns="http://www.w3.org/2000/svg">
<path d="M84 14C84.0024 10.3511 82.5793 6.84567 80.034 4.23114C77.4887 1.61661 74.0227 0.0999122 70.3751 0.00447159C66.7275 -0.090969 63.1869 1.2424 60.5083 3.72025C57.8298 6.19809 56.2253 9.62434 56.0369 13.2683L24.5299 24.0439C22.8103 22.0703 20.5719 20.618 18.0688 19.852C15.5657 19.086 12.8979 19.0368 10.3683 19.7101C7.8386 20.3833 5.54824 21.7521 3.75703 23.661C1.96582 25.57 0.745453 27.9427 0.234372 30.5101C-0.276709 33.0774 -0.0580442 35.7366 0.865559 38.186C1.78916 40.6354 3.38073 42.7769 5.45972 44.3676C7.5387 45.9583 10.0219 46.9345 12.6276 47.1855C15.2332 47.4365 17.8571 46.9522 20.2015 45.7875L42.7537 65.4977C41.9182 67.9467 41.7779 70.5794 42.3484 73.1034C42.9189 75.6273 44.1778 77.9438 45.9854 79.7954C47.7929 81.6471 50.0783 82.9614 52.5878 83.5926C55.0973 84.2237 57.7326 84.1469 60.2011 83.3707C62.6695 82.5945 64.8745 81.1492 66.5712 79.1955C68.2678 77.2417 69.3897 74.8559 69.8122 72.303C70.2347 69.7501 69.9413 67.13 68.9647 64.7338C67.988 62.3376 66.3662 60.259 64.2794 58.7288L72.0634 27.8312C75.3804 27.3389 78.4102 25.6716 80.601 23.133C82.7919 20.5943 83.9981 17.3533 84 14ZM49.6165 57.55L27.178 37.9399C27.6321 36.6606 27.8968 35.3219 27.9637 33.9661L59.4597 23.1943C60.1715 24.0098 60.9751 24.7402 61.8546 25.3711L54.1022 56.1435C52.5379 56.3541 51.021 56.8298 49.6165 57.55Z" fill="#E5E5E5" fill-opacity="0.7"/>
</svg>
