<svg width="85" height="84" viewBox="0 0 85 84" fill="none" xmlns="http://www.w3.org/2000/svg">
<path fill-rule="evenodd" clip-rule="evenodd" d="M71.7501 34.3716H34.4757L34.8257 32.2672C35.1594 30.595 35.3722 28.8964 35.4658 27.1814H25.0273V64.7096H80.5014V27.1814H72.6385C72.5419 29.1309 72.3052 31.0642 71.925 32.9687L71.7501 34.3716ZM28.8758 2.63048C32.9706 9.34524 35.2177 16.589 35.4924 23.6741H21.5273V68.2169H56.7728C56.6337 68.3379 56.4932 68.455 56.3527 68.5677C54.9528 69.6199 53.5528 70.8474 52.8528 72.9518C52.7521 73.4565 52.5934 73.9031 52.4434 74.325C52.3329 74.6361 52.2271 74.9338 52.1528 75.2316C52.0876 75.4274 51.9982 75.6476 51.9026 75.883C51.7415 76.2799 51.5627 76.7203 51.4528 77.1606C50.7528 79.0896 49.8778 80.3172 48.8279 80.4925C47.6029 80.6679 46.2029 79.9664 44.6279 79.0896C44.4716 79.0113 44.3125 78.9302 44.1506 78.8476C42.5 78.0061 40.5592 77.0165 38.328 77.3359C37.278 77.5113 36.2281 77.862 35.3531 78.2128C34.3031 78.7389 33.4281 79.0896 32.2031 79.0896C30.2782 79.0896 29.4032 78.9142 28.0032 77.3359C27.8282 76.9852 27.4782 76.6345 27.1283 76.2838L27.1282 76.2838C26.9673 76.1225 26.8064 75.9552 26.6431 75.7854C25.5633 74.6627 24.3794 73.4318 22.4033 73.1272C21.0891 72.8345 19.8967 73.2745 18.9279 73.632C18.7356 73.7029 18.5522 73.7706 18.3783 73.8286C17.6784 74.1794 17.1534 74.3547 16.6284 74.3547C15.5784 74.3547 15.2284 74.004 15.0534 73.8286C14.1784 72.7765 14.3534 69.7952 14.7034 66.814L14.7546 66.3526C18.2154 65.1894 20.6497 61.9503 20.6497 58.0458V23.4989C20.6497 18.5886 16.7997 14.7306 11.8998 14.7306H8.74986C3.84994 14.7306 0 18.5886 0 23.4989V58.0458C0 62.9561 3.84994 66.8141 8.74986 66.8141H10.9807C10.6513 70.4637 10.4164 73.7574 12.2534 75.933C13.1284 76.9852 14.5284 77.6867 16.4534 77.6867C17.6784 77.6867 18.7283 77.336 19.6033 76.9852C19.8689 76.8965 20.1009 76.8078 20.3106 76.7276C20.9301 76.4907 21.3553 76.3281 21.8783 76.4591C22.7533 76.6345 23.4533 77.3359 24.5032 78.5635L25.5532 79.6157C27.6532 81.8954 29.5782 82.4215 32.2031 82.4215C34.1281 82.4215 35.5281 81.8954 36.753 81.3694C37.628 81.0186 38.328 80.8433 39.028 80.6679C40.4004 80.496 41.6047 81.1667 43.1353 82.0192L43.2279 82.0708C43.32 82.122 43.4126 82.1739 43.5058 82.226C45.0086 83.067 46.6756 83.9998 48.6529 83.9998H49.7028C51.8028 83.6491 53.7278 81.7201 54.9528 78.5635C55.0535 78.0588 55.2122 77.6123 55.3621 77.1903C55.4727 76.8792 55.5785 76.5815 55.6527 76.2838C55.8277 75.5823 56.0027 74.8808 56.3527 74.1794C56.6222 73.2342 57.3066 72.601 58.0865 71.8793C58.3196 71.6637 58.5611 71.4402 58.8027 71.1982C58.9761 71.0244 59.1543 70.8506 59.3341 70.6753C60.1025 69.9258 60.9006 69.1475 61.4821 68.2169H84.0013V23.6741H72.6621C72.3879 15.9587 69.9794 8.10756 65.6252 0.876827L65.1002 0H27.3008L28.8758 2.63048ZM38.6756 30.8643H68.9501C70.1751 21.9207 68.2501 12.2756 63.1752 3.50731H33.4257C37.9756 12.2756 39.9006 21.9207 38.6756 30.8643ZM3.49994 23.4989C3.49994 20.5176 5.77491 18.2379 8.74986 18.2379H11.8998C14.8748 18.2379 17.1497 20.5176 17.1497 23.4989V58.0458C17.1497 61.027 14.8748 63.3068 11.8998 63.3068H8.74986C5.77491 63.3068 3.49994 61.027 3.49994 58.0458V23.4989ZM34.3008 41.2109H39.9007V44.7182H34.3008V41.2109ZM49.1702 41.2109H43.5703V44.7182H49.1702V41.2109ZM53.0273 41.2109H58.6273V44.7182H53.0273V41.2109ZM67.9007 41.2109H62.3008V44.7182H67.9007V41.2109ZM34.3008 48.5762H39.9007V52.0835H34.3008V48.5762ZM49.1702 48.5762H43.5703V52.0835H49.1702V48.5762ZM53.0273 48.5762H58.6273V52.0835H53.0273V48.5762ZM67.9007 48.5762H62.3008V52.0835H67.9007V48.5762ZM34.3008 55.7663H39.9007V59.2736H34.3008V55.7663ZM49.1702 55.7663H43.5703V59.2736H49.1702V55.7663ZM53.0273 55.7663H58.6273V59.2736H53.0273V55.7663ZM67.9007 55.7663H62.3008V59.2736H67.9007V55.7663ZM73.1484 44.3674H76.6484V57.5198H73.1484V44.3674ZM61.7754 6.83893H38.6758V10.3462H61.7754V6.83893ZM42 14.9062H65.0996V18.4135H42V14.9062ZM65.6199 22.973H42.6953V26.4803H65.6199V22.973Z" fill="#D9D9D6"/>
</svg>
