<svg width="28" height="27" viewBox="0 0 28 27" fill="none" xmlns="http://www.w3.org/2000/svg">
<path d="M27.0082 6.22063C27.0082 11.0735 27.0082 15.9265 27.0082 20.7711C26.9011 21.2737 26.8352 21.7928 26.6787 22.2789C25.7559 25.1132 23.2099 26.9753 20.2109 26.9835C15.737 27 11.263 26.9918 6.78914 26.9835C5.33903 26.9835 4.01251 26.5798 2.84254 25.7229C0.939274 24.3222 0 22.4272 0 20.0708C0 15.7122 0 11.3537 0 6.99512C0 6.5502 0.0247177 6.09704 0.0988709 5.66036C0.568508 3.17211 1.98566 1.43363 4.3256 0.477876C4.92707 0.230699 5.59445 0.156546 6.22887 0C11.0818 0 15.9347 0 20.7794 0C20.9689 0.032957 21.1584 0.0659139 21.3479 0.0988709C23.8197 0.560268 25.5499 1.96094 26.5056 4.26793C26.7693 4.88587 26.8517 5.56973 27.0082 6.22063ZM19.1315 13.4959C19.1315 10.4062 16.6186 7.89319 13.5124 7.86848C10.4309 7.84376 7.86848 10.3979 7.87672 13.4959C7.87672 16.5938 10.4474 19.148 13.5206 19.1233C16.635 19.0986 19.1398 16.5856 19.1315 13.4959ZM20.8206 7.86848C21.7434 7.86848 22.4931 7.13518 22.5096 6.20415C22.5261 5.28959 21.7516 4.50687 20.8206 4.50687C19.906 4.50687 19.148 5.25664 19.1398 6.17943C19.1315 7.11047 19.8895 7.86848 20.8206 7.86848Z" fill="white"/>
</svg>
