<svg width="24" height="24" viewBox="0 0 24 24" fill="none" xmlns="http://www.w3.org/2000/svg">
<path d="M0.585366 3.89189H14.9854C15.2488 5.38378 16.4488 6.48649 17.8537 6.48649C19.2585 6.48649 20.4585 5.38378 20.722 3.89189H23.4146C23.7366 3.89189 24 3.6 24 3.24324C24 2.88649 23.7366 2.59459 23.4146 2.59459H20.722C20.4585 1.1027 19.2585 0 17.8537 0C16.4488 0 15.2488 1.1027 14.9854 2.59459H0.585366C0.263415 2.59459 0 2.88649 0 3.24324C0 3.6 0.263415 3.89189 0.585366 3.89189ZM17.8537 1.2973C18.8195 1.2973 19.6098 2.17297 19.6098 3.24324C19.6098 4.31351 18.8195 5.18919 17.8537 5.18919C16.8878 5.18919 16.0976 4.31351 16.0976 3.24324C16.0976 2.17297 16.8878 1.2973 17.8537 1.2973ZM23.4146 11.3514H9.01463C8.75122 9.85946 7.55122 8.75676 6.14634 8.75676C4.74146 8.75676 3.54146 9.85946 3.27805 11.3514H0.585366C0.263415 11.3514 0 11.6432 0 12C0 12.3568 0.263415 12.6486 0.585366 12.6486H3.27805C3.54146 14.1405 4.74146 15.2432 6.14634 15.2432C7.55122 15.2432 8.75122 14.1405 9.01463 12.6486H23.4146C23.7366 12.6486 24 12.3568 24 12C24 11.6432 23.7366 11.3514 23.4146 11.3514ZM6.14634 13.9459C5.18049 13.9459 4.39024 13.0703 4.39024 12C4.39024 10.9297 5.18049 10.0541 6.14634 10.0541C7.1122 10.0541 7.90244 10.9297 7.90244 12C7.90244 13.0703 7.1122 13.9459 6.14634 13.9459ZM23.4146 20.1081H14.8683C14.6049 18.6162 13.4049 17.5135 12 17.5135C10.5951 17.5135 9.39512 18.6162 9.13171 20.1081H0.585366C0.263415 20.1081 0 20.4 0 20.7568C0 21.1135 0.263415 21.4054 0.585366 21.4054H9.13171C9.39512 22.8973 10.5951 24 12 24C13.4049 24 14.6049 22.8973 14.8683 21.4054H23.4146C23.7366 21.4054 24 21.1135 24 20.7568C24 20.4 23.7366 20.1081 23.4146 20.1081ZM12 22.7027C11.0341 22.7027 10.2439 21.827 10.2439 20.7568C10.2439 19.6865 11.0341 18.8108 12 18.8108C12.9659 18.8108 13.7561 19.6865 13.7561 20.7568C13.7561 21.827 12.9659 22.7027 12 22.7027Z" fill="black"/>
</svg>
