<svg width="30" height="30" viewBox="0 0 30 30" fill="none" xmlns="http://www.w3.org/2000/svg">
<path d="M30 15C30 6.71573 23.2843 0 15 0C6.71573 0 0 6.71573 0 15C0 23.2843 6.71573 30 15 30C23.2843 30 30 23.2843 30 15Z" fill="#0072C6"/>
<path d="M16.6829 5.4L5.50391 7.56316V22.2568L16.6829 24.6V5.4ZM17.3886 9.47053V13.2253L18.7007 14.0526C18.7354 14.0627 18.8098 14.0635 18.8444 14.0526L24.4939 10.2442C24.4939 9.79351 24.0743 9.47053 23.8371 9.47053H17.3886ZM11.2197 11.6416C11.9574 11.6416 12.5536 11.942 13.0086 12.5463C13.4644 13.1506 13.6923 13.9482 13.6923 14.9368C13.693 15.9529 13.4573 16.7721 12.985 17.3937C12.5126 18.0153 11.8961 18.3268 11.136 18.3268C10.3954 18.3268 9.79311 18.0258 9.32654 17.4237C8.86069 16.8208 8.62548 16.0357 8.62548 15.0679C8.62548 14.0461 8.86381 13.2199 9.33759 12.5889C9.81137 11.958 10.4387 11.6416 11.2197 11.6416ZM24.4955 11.7616C24.4955 11.7616 18.7571 15.5756 18.9597 15.4516C18.9597 15.4516 18.7558 15.5756 18.5871 15.4516L17.3886 14.629V19.7321H23.4723C24.0132 19.7321 24.4955 19.4162 24.4955 18.6647V11.7616ZM11.1865 12.8968C10.7784 12.8968 10.454 13.0887 10.2139 13.4716C9.97377 13.8545 9.85233 14.3611 9.85233 14.9921C9.85233 15.6325 9.97377 16.139 10.2139 16.5111C10.454 16.8839 10.7687 17.0684 11.1581 17.0684C11.5598 17.0684 11.8783 16.8873 12.1134 16.5253C12.3485 16.1633 12.4671 15.6599 12.4671 15.0174C12.4671 14.3474 12.353 13.827 12.1244 13.4542C11.8958 13.0821 11.5832 12.8968 11.1865 12.8968Z" fill="white"/>
</svg>
