<svg width="32" height="28" viewBox="0 0 32 28" fill="none" xmlns="http://www.w3.org/2000/svg">
<path d="M31.0064 8.22612C30.8748 8.06154 30.6759 7.96551 30.4653 7.96551H30.1569L29.1398 3.71825C29.096 3.5359 28.9805 3.37881 28.8195 3.28333C28.6582 3.18758 28.4657 3.16149 28.2847 3.21034L22.95 4.65912L22.1396 2.67468C22.1351 2.66385 22.1279 2.65525 22.1232 2.64498C22.1074 2.61084 22.0905 2.57782 22.0697 2.54701C22.0606 2.53369 22.0498 2.52203 22.0398 2.50954C22.0193 2.48345 21.998 2.45792 21.9739 2.43516C21.9611 2.42322 21.9476 2.4124 21.934 2.40158C21.9096 2.38187 21.8844 2.36327 21.8575 2.3469C21.842 2.33746 21.8262 2.32886 21.8101 2.32053C21.7819 2.3061 21.7522 2.29417 21.7217 2.28362C21.7109 2.28001 21.7015 2.27391 21.6904 2.27057L13.9469 0.0291248C13.9349 0.0255168 13.923 0.0224638 13.9108 0.0194108C13.751 -0.0194454 13.5903 0.00164814 13.4517 0.0682588C13.4515 0.0682588 13.4515 0.0682587 13.4512 0.0685362C13.4213 0.0829685 13.3924 0.0993437 13.365 0.117662C13.2872 0.16984 13.2195 0.237839 13.1677 0.318882L10.0307 4.96831L5.58098 2.33996C5.42942 2.25059 5.25819 2.22561 5.09804 2.25642C5.07421 2.26114 5.05066 2.26697 5.02739 2.27391C4.87971 2.31887 4.74644 2.41296 4.65473 2.54978L0.943084 7.96551H0.692612C0.482038 7.96551 0.282823 8.06154 0.151492 8.22612C0.0201601 8.39099 -0.0294357 8.60664 0.0171123 8.8123L3.00172 22.042C3.07293 22.3584 3.3536 22.5829 3.67722 22.5829H4.64143C4.91794 25.0895 7.04336 27.0461 9.6179 27.0461C12.1924 27.0461 14.3179 25.0895 14.5944 22.5829H16.5632C16.84 25.0895 18.9652 27.0461 21.5397 27.0461C24.1143 27.0461 26.2397 25.0895 26.5162 22.5829H27.4801C27.8037 22.5829 28.0844 22.3584 28.1556 22.042L31.1402 8.8123C31.1873 8.60664 31.1377 8.39099 31.0064 8.22612ZM27.9589 4.73656L28.7322 7.96551H24.3002L23.4784 5.95359L27.9589 4.73656ZM16.7539 5.54338L21.1155 3.83287L22.8032 7.96551H17.6374L16.7539 5.54338ZM19.3456 3.0366L16.2183 4.26307L15.0399 1.79015L19.3456 3.0366ZM13.6465 2.08767L15.2319 5.41377L16.1626 7.96551H15.105L11.2266 5.67466L13.6465 2.08767ZM12.3775 7.96551H9.33002L7.42544 5.04047L12.3775 7.96551ZM5.21441 4.18508L7.67619 7.96551H2.62352L5.21441 4.18508ZM9.61818 25.6584C7.80863 25.6584 6.30939 24.3218 6.04147 22.5829C6.01348 22.4017 5.99464 22.2174 5.99464 22.0284C5.99464 21.7412 6.03149 21.4631 6.09494 21.1952C6.47231 19.5949 7.90699 18.399 9.61818 18.399C11.3294 18.399 12.764 19.5949 13.1414 21.1952C13.2049 21.4633 13.2417 21.7414 13.2417 22.0284C13.2417 22.2174 13.2229 22.4017 13.1949 22.5829C12.927 24.3218 11.4275 25.6584 9.61818 25.6584ZM21.54 25.6584C19.7304 25.6584 18.2312 24.3218 17.9633 22.5829C17.9353 22.4017 17.9165 22.2174 17.9165 22.0284C17.9165 21.7412 17.9533 21.4631 18.0165 21.1952C18.3938 19.5949 19.8285 18.399 21.54 18.399C23.2515 18.399 24.6859 19.5949 25.0635 21.1952C25.1267 21.4633 25.1635 21.7414 25.1635 22.0284C25.1635 22.2174 25.1447 22.4017 25.1167 22.5829C24.849 24.3218 23.3495 25.6584 21.54 25.6584ZM26.9271 21.1955H26.4741C26.0759 18.825 24.0181 17.0115 21.54 17.0115C19.0619 17.0115 17.0041 18.825 16.6059 21.1955H14.552C14.1538 18.825 12.096 17.0115 9.6179 17.0115C7.13978 17.0115 5.08197 18.825 4.68382 21.1955H4.23053L1.55901 9.35351H8.95459H14.9155H17.1526H23.8347H29.5983L26.9271 21.1955Z" fill="white"/>
<path d="M9.61802 20.6165C9.15143 20.6165 8.74137 20.8457 8.4848 21.1946C8.31302 21.4283 8.20801 21.7143 8.20801 22.0267C8.20801 22.2232 8.24846 22.4103 8.32133 22.5805C8.53661 23.0841 9.03589 23.4373 9.61802 23.4373C10.2001 23.4373 10.6997 23.0841 10.9147 22.5805C10.9876 22.4103 11.028 22.2235 11.028 22.0267C11.028 21.7143 10.9233 21.4283 10.7512 21.1946C10.4947 20.8454 10.0843 20.6165 9.61802 20.6165Z" fill="white"/>
<path d="M21.5404 20.6165C21.0738 20.6165 20.6637 20.8457 20.4072 21.1946C20.2354 21.4283 20.1304 21.7143 20.1304 22.0267C20.1304 22.2232 20.1708 22.4103 20.2437 22.5805C20.459 23.0841 20.9583 23.4373 21.5404 23.4373C22.1225 23.4373 22.6218 23.0841 22.8371 22.5805C22.9097 22.4103 22.9504 22.2235 22.9504 22.0267C22.9504 21.7143 22.8457 21.4283 22.6736 21.1946C22.417 20.8454 22.0067 20.6165 21.5404 20.6165Z" fill="white"/>
</svg>
