<svg width="84" height="84" viewBox="0 0 84 84" fill="none" xmlns="http://www.w3.org/2000/svg">
<path d="M76.2423 74.0132C79.8252 70.3388 79.8252 65.4396 76.2423 61.8595L66.4365 52.0611C64.7394 50.271 62.6651 49.3288 60.4022 49.3288C58.2336 49.3288 56.1593 50.271 54.3679 52.0611L48.7107 57.714C48.2393 57.4313 47.7679 57.2429 47.2964 56.9603C46.6364 56.6776 46.0707 56.3008 45.505 56.0181C40.225 52.7206 35.4164 48.2925 30.8906 42.7338C28.6278 39.9073 27.1192 37.552 26.0821 35.1024C27.4963 33.7834 28.9106 32.3701 30.2306 31.0511C30.7021 30.58 31.2678 30.0148 31.7392 29.5437C33.5307 27.7536 34.5678 25.5866 34.5678 23.4197C34.5678 21.2528 33.6249 19.18 31.7392 17.2957L26.9306 12.3965C26.3649 11.8312 25.7992 11.266 25.3278 10.7007C24.2906 9.57008 23.1592 8.4395 22.0277 7.40314C20.3306 5.70727 18.2563 4.76511 16.0877 4.76511C13.9191 4.76511 11.8448 5.70727 10.0534 7.40314L3.9248 13.5271C1.66193 15.7883 0.341925 18.5205 0.0590667 21.7238C-0.318078 26.9057 1.1905 31.7106 2.32194 34.9139C5.15052 42.6396 9.48768 49.8941 15.8991 57.6198C23.7249 66.9471 33.0592 74.2016 43.7136 79.3835C47.7679 81.362 53.2365 83.6231 59.3651 84C59.7422 84 60.1194 84 60.4965 84C64.5508 84 68.0394 82.4926 70.6794 79.5719L70.7737 79.4777C71.7166 78.3471 72.7537 77.3107 73.8851 76.2744C74.7337 75.6149 75.488 74.8611 76.2423 74.0132ZM70.6794 72.9768C69.548 74.1074 68.3223 75.238 67.2851 76.557C65.4937 78.5355 63.3251 79.3835 60.5908 79.3835C60.3079 79.3835 60.0251 79.3835 59.7422 79.3835C54.4622 78.9124 49.5593 76.9339 45.7879 75.1438C35.6992 70.2446 26.9306 63.3669 19.5763 54.6049C13.542 47.3503 9.48769 40.5668 6.75339 33.3123C5.05623 28.8842 4.49052 25.3982 4.77338 22.1949C4.96195 20.1222 5.81052 18.4263 7.22482 16.9189L13.2591 10.8891C14.1077 10.0412 15.0506 9.57008 15.9934 9.57008C17.1249 9.57008 18.0677 10.2296 18.7277 10.8891C19.8592 11.9255 20.802 12.9618 21.9335 14.0924C22.4992 14.6577 23.0649 15.223 23.6306 15.7883L28.4392 20.5932C29.3821 21.5354 29.8535 22.4775 29.8535 23.4197C29.8535 24.3619 29.3821 25.304 28.4392 26.2462C27.9678 26.7172 27.4021 27.2825 26.9306 27.7536C25.4221 29.261 24.0078 30.6743 22.4992 32.0875L22.4049 32.1817C20.8963 33.6891 21.1792 35.1966 21.462 36.1387C21.462 36.233 21.462 36.233 21.5563 36.3272C22.782 39.342 24.5735 42.2627 27.3078 45.6545C32.2107 51.6842 37.3964 56.395 43.0536 59.9752C43.8078 60.4462 44.5621 60.8231 45.2221 61.2C45.8821 61.4826 46.4479 61.8595 47.0136 62.1421C47.1079 62.1421 47.1079 62.2363 47.2022 62.2363C47.7679 62.519 48.3336 62.7074 48.8993 62.7074C50.3136 62.7074 51.2565 61.7652 51.5393 61.4826L57.6679 55.3586C58.2336 54.7933 59.2708 54.0396 60.4022 54.0396C61.5337 54.0396 62.3822 54.7933 63.0422 55.3586L72.848 65.157C75.1109 67.4181 74.0737 69.4909 72.7537 70.8099C72.188 71.5636 71.4337 72.2231 70.6794 72.9768ZM43.525 17.1073C43.7136 15.7883 44.9393 14.9403 46.2593 15.223C51.9165 16.1651 57.0079 18.8032 61.0622 22.9486C65.1165 27.0941 67.7565 32.1817 68.7937 37.7404C68.9823 39.0594 68.1337 40.2842 66.908 40.4726C66.8137 40.4726 66.6251 40.4726 66.5308 40.4726C65.3994 40.4726 64.3622 39.6247 64.1737 38.4941C63.4194 33.8776 61.1565 29.5437 57.7622 26.2462C54.3679 22.8544 50.125 20.6875 45.505 19.8395C44.0907 19.6511 43.2421 18.4263 43.525 17.1073ZM79.3537 37.8346C77.9394 29.5437 73.9794 22.0065 68.0394 15.9767C62.0051 9.94694 54.4622 6.08413 46.165 4.6709C44.845 4.48247 43.9964 3.25767 44.2793 1.93866C44.5621 0.619651 45.6936 -0.228285 47.0136 0.0543601C56.1593 1.5618 64.6451 5.8957 71.3394 12.585C78.0337 19.2742 82.4652 27.7536 83.9738 36.9867C84.1623 38.3057 83.3138 39.5305 82.088 39.7189C81.9938 39.7189 81.8052 39.7189 81.7109 39.7189C80.5795 39.8131 79.5423 38.9652 79.3537 37.8346Z" fill="#D9D9D6"/>
</svg>
