<svg width="50" height="34" viewBox="0 0 50 34" fill="none" xmlns="http://www.w3.org/2000/svg">
<path fill-rule="evenodd" clip-rule="evenodd" d="M4.99496 32.8386H45.0656C47.2446 32.8386 49 31.0227 49 28.8436V4.99496C49 2.75536 47.1841 1 45.0051 1H4.99496C2.75536 1 1 2.81589 1 4.99496V28.8436C1 31.0832 2.81589 32.8386 4.99496 32.8386ZM2.21059 5.05549C2.21059 3.48171 3.48171 2.27112 4.99496 2.27112V2.21059H45.0051C46.5788 2.21059 47.7894 3.48171 47.7894 4.99496V28.9042C47.7894 30.4779 46.5183 31.6885 45.0051 31.6885H4.99496C3.42119 31.6885 2.21059 30.4174 2.21059 28.9042V5.05549ZM23.3947 19.7037C23.8789 20.0669 24.4842 20.2485 25.029 20.2485C25.5737 20.2485 26.179 20.0669 26.6633 19.7037L29.6169 17.4214L44.2779 28.2989L44.52 28.4804C44.6411 28.541 44.7621 28.6015 44.8832 28.6015C45.0648 28.6015 45.2464 28.4804 45.4279 28.3594C45.6095 28.1173 45.549 27.6936 45.3069 27.512L30.6133 16.6515L43.9748 6.32667C44.2774 6.14508 44.2774 5.72137 44.0958 5.47925C43.9142 5.17661 43.4905 5.17661 43.2484 5.35819L25.8764 18.7352C25.3316 19.159 24.6658 19.159 24.121 18.7352L20.9537 16.2878C20.9098 16.2374 20.8549 16.1959 20.7936 16.164L6.80956 5.35819C6.56744 5.17661 6.14373 5.23713 5.96214 5.47925C5.78055 5.72137 5.84108 6.14508 6.0832 6.32667L19.4751 16.675L5.05562 27.3304L4.8135 27.512C4.57138 27.6936 4.51085 28.1173 4.69244 28.3594C4.8135 28.541 4.99509 28.6015 5.17668 28.6015C5.29773 28.6015 5.41878 28.541 5.53983 28.4804L5.53985 28.4804L20.4709 17.4444L23.3947 19.7037Z" fill="url(#paint0_linear)"/>
<path d="M4.99496 2.27112V2.77112H5.49496V2.27112H4.99496ZM4.99496 2.21059V1.71059H4.49496V2.21059H4.99496ZM23.3947 19.7037L23.0889 20.0994L23.0947 20.1037L23.3947 19.7037ZM26.6633 19.7037L26.9633 20.1038L26.969 20.0994L26.6633 19.7037ZM29.6169 17.4214L29.9148 17.0198L29.6108 16.7942L29.3112 17.0257L29.6169 17.4214ZM44.2779 28.2989L44.5779 27.8988L44.5758 27.8973L44.2779 28.2989ZM44.52 28.4804L44.22 28.8804L44.2561 28.9075L44.2964 28.9277L44.52 28.4804ZM45.4279 28.3594L45.7053 28.7754L45.7766 28.7279L45.8279 28.6594L45.4279 28.3594ZM45.3069 27.512L45.6069 27.112L45.6041 27.1099L45.3069 27.512ZM30.6133 16.6515L30.3075 16.2558L29.7841 16.6603L30.3161 17.0536L30.6133 16.6515ZM43.9748 6.32667L43.7175 5.89792L43.6923 5.91305L43.669 5.93103L43.9748 6.32667ZM44.0958 5.47925L43.6671 5.7365L43.6803 5.75862L43.6958 5.77926L44.0958 5.47925ZM43.2484 5.35819L42.9484 4.95816L42.9433 4.96204L43.2484 5.35819ZM25.8764 18.7352L25.5713 18.3391L25.5694 18.3406L25.8764 18.7352ZM24.121 18.7352L24.428 18.3406L24.4268 18.3396L24.121 18.7352ZM20.9537 16.2878L20.5766 16.6161L20.609 16.6533L20.648 16.6834L20.9537 16.2878ZM20.7936 16.164L20.4879 16.5597L20.5233 16.5871L20.5631 16.6077L20.7936 16.164ZM6.80956 5.35819L7.11531 4.96251L7.10956 4.95819L6.80956 5.35819ZM5.96214 5.47925L6.36214 5.77925L6.36214 5.77925L5.96214 5.47925ZM6.0832 6.32667L6.38896 5.93098L6.3832 5.92667L6.0832 6.32667ZM19.4751 16.675L19.7723 17.0771L20.3044 16.6839L19.7809 16.2793L19.4751 16.675ZM5.05562 27.3304L4.75846 26.9282L4.75562 26.9304L5.05562 27.3304ZM4.8135 27.512L4.5135 27.112L4.5135 27.112L4.8135 27.512ZM4.69244 28.3594L5.10846 28.082L5.10076 28.0705L5.09244 28.0594L4.69244 28.3594ZM5.53983 28.4804L5.76344 28.9277L5.77585 28.9215L5.7879 28.9146L5.53983 28.4804ZM5.53985 28.4804L5.78792 28.9146L5.81343 28.9L5.83705 28.8825L5.53985 28.4804ZM20.4709 17.4444L20.7766 17.0488L20.4776 16.8177L20.1737 17.0424L20.4709 17.4444ZM45.0656 32.3386H4.99496V33.3386H45.0656V32.3386ZM48.5 28.8436C48.5 30.7565 46.9586 32.3386 45.0656 32.3386V33.3386C47.5307 33.3386 49.5 31.2889 49.5 28.8436H48.5ZM48.5 4.99496V28.8436H49.5V4.99496H48.5ZM45.0051 1.5C46.9129 1.5 48.5 3.03642 48.5 4.99496H49.5C49.5 2.47429 47.4553 0.5 45.0051 0.5V1.5ZM4.99496 1.5H45.0051V0.5H4.99496V1.5ZM1.5 4.99496C1.5 3.08708 3.03642 1.5 4.99496 1.5V0.5C2.47429 0.5 0.5 2.5447 0.5 4.99496H1.5ZM1.5 28.8436V4.99496H0.5V28.8436H1.5ZM4.99496 32.3386C3.08708 32.3386 1.5 30.8022 1.5 28.8436H0.5C0.5 31.3643 2.54469 33.3386 4.99496 33.3386V32.3386ZM4.99496 1.77112C3.21269 1.77112 1.71059 3.19851 1.71059 5.05549H2.71059C2.71059 3.76492 3.75074 2.77112 4.99496 2.77112V1.77112ZM4.49496 2.21059V2.27112H5.49496V2.21059H4.49496ZM45.0051 1.71059H4.99496V2.71059H45.0051V1.71059ZM48.2894 4.99496C48.2894 3.21269 46.862 1.71059 45.0051 1.71059V2.71059C46.2956 2.71059 47.2894 3.75074 47.2894 4.99496H48.2894ZM48.2894 28.9042V4.99496H47.2894V28.9042H48.2894ZM45.0051 32.1885C46.7873 32.1885 48.2894 30.7611 48.2894 28.9042H47.2894C47.2894 30.1947 46.2493 31.1885 45.0051 31.1885V32.1885ZM4.99496 32.1885H45.0051V31.1885H4.99496V32.1885ZM1.71059 28.9042C1.71059 30.6864 3.13798 32.1885 4.99496 32.1885V31.1885C3.70439 31.1885 2.71059 30.1484 2.71059 28.9042H1.71059ZM1.71059 5.05549V28.9042H2.71059V5.05549H1.71059ZM25.029 19.7485C24.5866 19.7485 24.0879 19.5986 23.6947 19.3037L23.0947 20.1037C23.67 20.5352 24.3818 20.7485 25.029 20.7485V19.7485ZM26.3633 19.3037C25.9701 19.5986 25.4713 19.7485 25.029 19.7485V20.7485C25.6761 20.7485 26.388 20.5352 26.9633 20.1037L26.3633 19.3037ZM29.3112 17.0257L26.3576 19.3081L26.969 20.0994L29.9226 17.817L29.3112 17.0257ZM44.5758 27.8973L29.9148 17.0198L29.319 17.8229L43.98 28.7004L44.5758 27.8973ZM44.82 28.0804L44.5779 27.8989L43.9779 28.6989L44.22 28.8804L44.82 28.0804ZM44.8832 28.1015C44.9046 28.1015 44.9066 28.1066 44.8772 28.0955C44.8456 28.0837 44.8089 28.0659 44.7436 28.0332L44.2964 28.9277C44.3884 28.9737 44.6211 29.1015 44.8832 29.1015V28.1015ZM45.1506 27.9434C45.054 28.0077 44.9898 28.0497 44.9319 28.0786C44.8753 28.107 44.8647 28.1015 44.8832 28.1015V29.1015C45.0833 29.1015 45.2543 29.0355 45.3792 28.973C45.5029 28.9112 45.6203 28.8321 45.7053 28.7754L45.1506 27.9434ZM45.0069 27.912C45.0008 27.9074 45.0049 27.9083 45.0125 27.9225C45.0201 27.9368 45.0277 27.958 45.0313 27.9837C45.035 28.0094 45.0337 28.0319 45.0303 28.0477C45.027 28.0634 45.0234 28.0654 45.0279 28.0594L45.8279 28.6594C46.0163 28.4082 46.058 28.0994 46.0213 27.8423C45.9845 27.5851 45.858 27.3003 45.6069 27.112L45.0069 27.912ZM30.3161 17.0536L45.0097 27.9141L45.6041 27.1099L30.9105 16.2494L30.3161 17.0536ZM43.669 5.93103L30.3075 16.2558L30.919 17.0471L44.2805 6.72231L43.669 5.93103ZM43.6958 5.77926C43.6999 5.78475 43.7078 5.79814 43.7136 5.81933C43.7192 5.84027 43.7208 5.86117 43.7191 5.87826C43.7175 5.89509 43.7136 5.90227 43.7135 5.90235C43.7135 5.90237 43.7137 5.90205 43.7141 5.90149C43.7145 5.90092 43.7151 5.90026 43.7157 5.89957C43.7173 5.89799 43.7182 5.89749 43.7175 5.89792L44.232 6.75541C44.5444 6.56795 44.6874 6.25868 44.7146 5.97306C44.7409 5.69677 44.6652 5.40503 44.4958 5.17925L43.6958 5.77926ZM43.5484 5.75819C43.5539 5.75407 43.5673 5.74621 43.5885 5.74046C43.6094 5.73477 43.6303 5.73326 43.6474 5.73488C43.6642 5.73649 43.6714 5.74046 43.6715 5.74051C43.6715 5.74052 43.6712 5.74033 43.6706 5.73992C43.6701 5.73949 43.6694 5.73893 43.6687 5.73827C43.6671 5.73673 43.6666 5.73578 43.6671 5.7365L44.5246 5.22201C44.3371 4.90957 44.0278 4.76659 43.7422 4.73939C43.4659 4.71307 43.1742 4.78886 42.9484 4.95819L43.5484 5.75819ZM26.1815 19.1314L43.5535 5.75435L42.9433 4.96204L25.5713 18.3391L26.1815 19.1314ZM23.8141 19.1299C24.5394 19.6941 25.458 19.6941 26.1834 19.1299L25.5694 18.3406C25.2052 18.6238 24.7922 18.6238 24.428 18.3406L23.8141 19.1299ZM20.648 16.6834L23.8153 19.1309L24.4268 18.3396L21.2594 15.8921L20.648 16.6834ZM20.5631 16.6077C20.576 16.6144 20.579 16.6188 20.5766 16.6161L21.3308 15.9594C21.2407 15.8559 21.1339 15.7774 21.0241 15.7203L20.5631 16.6077ZM6.50383 5.75384L20.4879 16.5597L21.0993 15.7684L7.11528 4.96255L6.50383 5.75384ZM6.36214 5.77925C6.3576 5.78531 6.3585 5.78126 6.37272 5.77367C6.38696 5.76606 6.40816 5.75848 6.43386 5.75481C6.45956 5.75114 6.48204 5.75248 6.49784 5.75579C6.51361 5.7591 6.51561 5.76274 6.50956 5.75819L7.10956 4.95819C6.85841 4.76983 6.54957 4.72813 6.29244 4.76486C6.03531 4.80159 5.75051 4.9281 5.56214 5.17925L6.36214 5.77925ZM6.3832 5.92667C6.38926 5.93121 6.38521 5.93031 6.37762 5.91609C6.37001 5.90185 6.36243 5.88065 6.35876 5.85495C6.35509 5.82925 6.35642 5.80677 6.35974 5.79097C6.36305 5.7752 6.36668 5.7732 6.36214 5.77925L5.56214 5.17925C5.37378 5.43041 5.33207 5.73924 5.36881 5.99637C5.40554 6.2535 5.53205 6.5383 5.7832 6.72667L6.3832 5.92667ZM19.7809 16.2793L6.38893 5.93103L5.77748 6.72231L19.1694 17.0706L19.7809 16.2793ZM5.35277 27.7325L19.7723 17.0771L19.178 16.2729L4.75847 26.9283L5.35277 27.7325ZM5.1135 27.912L5.35561 27.7304L4.75562 26.9304L4.5135 27.112L5.1135 27.912ZM5.09244 28.0594C5.09698 28.0654 5.09335 28.0634 5.09004 28.0477C5.08672 28.0319 5.08538 28.0094 5.08905 27.9837C5.09272 27.958 5.1003 27.9368 5.10791 27.9225C5.11551 27.9083 5.11955 27.9074 5.1135 27.912L4.5135 27.112C4.26235 27.3003 4.13584 27.5851 4.0991 27.8423C4.06237 28.0994 4.10407 28.4082 4.29244 28.6594L5.09244 28.0594ZM5.17668 28.1015C5.13989 28.1015 5.12287 28.0952 5.11876 28.0934C5.11708 28.0926 5.11677 28.0923 5.11661 28.0921C5.1165 28.092 5.11351 28.0896 5.10846 28.082L4.27641 28.6367C4.51571 28.9957 4.87981 29.1015 5.17668 29.1015V28.1015ZM5.31623 28.0332C5.25096 28.0659 5.21428 28.0837 5.18269 28.0955C5.15323 28.1066 5.1553 28.1015 5.17668 28.1015V29.1015C5.43872 29.1015 5.67141 28.9737 5.76344 28.9277L5.31623 28.0332ZM5.29178 28.0463L5.29176 28.0463L5.7879 28.9146L5.78792 28.9146L5.29178 28.0463ZM20.1737 17.0424L5.24266 28.0784L5.83705 28.8825L20.7681 17.8465L20.1737 17.0424ZM23.7004 19.3081L20.7766 17.0488L20.1652 17.8401L23.089 20.0994L23.7004 19.3081Z" fill="url(#paint1_linear)"/>
<defs>
<linearGradient id="paint0_linear" x1="0.999999" y1="32.8386" x2="32.5035" y2="3.55777" gradientUnits="userSpaceOnUse">
<stop stop-color="#F47F28"/>
<stop offset="1" stop-color="#FBB53B"/>
</linearGradient>
<linearGradient id="paint1_linear" x1="0.999999" y1="32.8386" x2="32.5035" y2="3.55777" gradientUnits="userSpaceOnUse">
<stop stop-color="#F47F28"/>
<stop offset="1" stop-color="#FBB53B"/>
</linearGradient>
</defs>
</svg>
