<svg version="1.1" id="Layer_1" xmlns="http://www.w3.org/2000/svg" xmlns:xlink="http://www.w3.org/1999/xlink" x="0px" y="0px"
	 width="14px" height="14px" viewBox="0 0 14 14" enable-background="new 0 0 14 14" xml:space="preserve">
<g>
	<defs>
		<rect id="SVGID_1_" width="14" height="14"/>
	</defs>
	<clipPath id="SVGID_2_">
		<use xlink:href="#SVGID_1_"  overflow="visible"/>
	</clipPath>
	<g clip-path="url(#SVGID_2_)">
		<path fill="#97999B" d="M2.16,11.721V5.396h2.106v6.325H2.16z M4.402,3.445c0,0.602-0.455,1.094-1.194,1.094H3.2
			c-0.71,0-1.166-0.492-1.166-1.094c0-0.62,0.474-1.093,1.194-1.093S4.394,2.826,4.402,3.445L4.402,3.445z M9.734,11.721V8.34
			c0-0.857-0.301-1.431-1.058-1.431c-0.583,0-0.93,0.392-1.085,0.765c-0.054,0.137-0.063,0.329-0.063,0.51v3.537H5.423
			c0.028-5.733,0-6.325,0-6.325h2.106v0.92H7.51C7.784,5.879,8.285,5.25,9.415,5.25c1.386,0,2.425,0.902,2.425,2.844v3.627H9.734z
			 M14,2.625C14,1.175,12.824,0,11.375,0h-8.75C1.175,0,0,1.175,0,2.625v8.75C0,12.824,1.175,14,2.625,14h8.75
			C12.824,14,14,12.824,14,11.375V2.625z"/>
	</g>
</g>
</svg>
