<svg width="72" height="69" viewBox="0 0 72 69" fill="none" xmlns="http://www.w3.org/2000/svg">
<path d="M70.125 43.875H1.875L14.4251 3.71775C14.7664 2.6205 15.7822 1.875 16.9294 1.875H55.0706C56.2177 1.875 57.2336 2.6205 57.5775 3.71775L70.125 43.875Z" stroke="#E5E5E5" stroke-width="2" stroke-miterlimit="10" stroke-linecap="round" stroke-linejoin="round"/>
<path d="M70.125 44.6258V64.875C70.125 66.324 68.949 67.5 67.5 67.5H4.5C3.051 67.5 1.875 66.324 1.875 64.875V44.6258" stroke="#E5E5E5" stroke-width="2" stroke-miterlimit="10" stroke-linecap="round" stroke-linejoin="round"/>
<path d="M36 34.6875C45.4234 34.6875 53.0625 29.3989 53.0625 22.875C53.0625 16.3511 45.4234 11.0625 36 11.0625C26.5766 11.0625 18.9375 16.3511 18.9375 22.875C18.9375 29.3989 26.5766 34.6875 36 34.6875Z" stroke="#E5E5E5" stroke-width="2" stroke-miterlimit="10" stroke-linecap="round" stroke-linejoin="round"/>
<path d="M35.9994 24.9474C37.8306 24.9474 39.3152 23.9577 39.3152 22.7368C39.3152 21.516 37.8306 20.5263 35.9994 20.5263C34.1681 20.5263 32.6836 21.516 32.6836 22.7368C32.6836 23.9577 34.1681 24.9474 35.9994 24.9474Z" stroke="#E5E5E5" stroke-miterlimit="10" stroke-linecap="round" stroke-linejoin="round"/>
<path d="M13.6875 55.6875H58.3125" stroke="#E5E5E5" stroke-miterlimit="10" stroke-linecap="round" stroke-linejoin="round"/>
</svg>
