<svg width="20" height="20" viewBox="0 0 20 20" fill="none" xmlns="http://www.w3.org/2000/svg">
<path d="M16.25 7.5C18.3125 7.5 20 5.8125 20 3.75C20 1.6875 18.3125 0 16.25 0C14.1875 0 12.5 1.6875 12.5 3.75C12.5 4 12.5625 4.3125 12.5625 4.5625L6.625 7.6875C6 6.8125 4.9375 6.25 3.75 6.25C1.6875 6.25 0 7.9375 0 10C0 12.0625 1.6875 13.75 3.75 13.75C4.9375 13.75 6 13.1875 6.6875 12.3125L12.1875 15.1875C12.125 15.4375 12.125 15.75 12.125 16C12.125 18.1875 13.875 19.9375 16.0625 19.9375C18.25 19.9375 20 18.1875 20 16C20 13.8125 18.25 12.0625 16.0625 12.0625C14.8125 12.0625 13.75 12.625 13 13.5L7.4375 10.625C7.5 10.4375 7.5 10.25 7.5 10C7.5 9.8125 7.5 9.5625 7.4375 9.375L13.4375 6.1875C14.125 7 15.125 7.5 16.25 7.5ZM16.0625 13.9375C17.1875 13.9375 18.125 14.875 18.125 16C18.125 17.125 17.1875 18.125 16.0625 18.125C14.9375 18.125 14 17.1875 14 16.0625C13.9375 14.875 14.875 13.9375 16.0625 13.9375ZM3.75 11.875C2.6875 11.875 1.875 11.0625 1.875 10C1.875 8.9375 2.6875 8.125 3.75 8.125C4.8125 8.125 5.625 8.9375 5.625 10C5.625 11.0625 4.8125 11.875 3.75 11.875ZM16.25 1.875C17.3125 1.875 18.125 2.6875 18.125 3.75C18.125 4.8125 17.3125 5.625 16.25 5.625C15.1875 5.625 14.375 4.8125 14.375 3.75C14.375 2.6875 15.25 1.875 16.25 1.875Z" fill="#97999B"/>
</svg>
