<svg width="85" height="85" viewBox="0 0 85 85" fill="none" xmlns="http://www.w3.org/2000/svg">
<path fill-rule="evenodd" clip-rule="evenodd" d="M85 14.548L84.5077 14.1121L67.1686 0.272369H66.7857H19.6364V21.7948H0V84.9999H50.103V78.0256H85V14.548ZM79.5303 13.8397H67.6609V4.19545L70.7239 6.64737L79.5303 13.8397ZM47.3681 82.2756H2.73488V24.7371H47.3681V82.2756ZM50.103 75.3012V61.1345H69.1377V58.4102H50.103V53.3429H73.8964V50.6185H50.103V45.6057H69.1377V42.8813H50.103V37.814H73.8964V35.0897H50.103V30.0769H69.1377V27.2435H50.103V21.7948H22.3713V2.72429H64.926V15.2019L66.2934 16.564H82.0463V75.3012H50.103ZM6.18018 27.2436H43.7574V42.391H6.18018V27.2436ZM8.91505 39.5577H41.0225L41.1866 30.0769H8.91505V39.5577ZM6.18018 46.641H43.7574V78.0256H6.18018V46.641ZM20.5656 58.9006V65.766H29.536V58.9006H20.5656ZM29.536 75.3012V68.4903H20.5656V75.3012H29.536ZM17.8308 58.9006H8.91505V65.766H17.8308V58.9006ZM20.5656 49.3653V56.1762H29.536V49.3653H20.5656ZM41.1866 58.9006H32.2709V65.766H41.1866V58.9006ZM32.2709 56.1762H41.1866V49.3653H32.2709V56.1762ZM17.8308 56.1762V49.3653H8.91505V56.1762H17.8308ZM17.8308 68.4903H8.91505V75.3012H17.8308V68.4903ZM32.2709 68.4903V75.3012H41.1866V68.4903H32.2709ZM27.5679 12.4231H57.925V15.1474H27.5679V12.4231Z" fill="#F58635"/>
</svg>
