<svg width="12" height="14" viewBox="0 0 12 14" fill="none" xmlns="http://www.w3.org/2000/svg">
<path d="M0 2.00014L0 12.0001C0 12.7891 0.639593 13.4287 1.42857 13.4287C2.21755 13.4287 2.85714 12.7891 2.85714 12.0001L2.85714 2.00014C2.85714 1.21116 2.21755 0.571564 1.42857 0.571564C0.639593 0.571564 0 1.21116 0 2.00014Z" fill="white"/>
<path d="M4.57227 2.00014L4.57227 12.0001C4.57227 12.7891 5.21186 13.4287 6.00084 13.4287C6.78982 13.4287 7.42941 12.7891 7.42941 12.0001L7.42941 2.00014C7.42941 1.21116 6.78982 0.571564 6.00084 0.571564C5.21186 0.571564 4.57227 1.21116 4.57227 2.00014Z" fill="white"/>
<path d="M9.14258 2.00014L9.14258 12.0001C9.14258 12.7891 9.78217 13.4287 10.5712 13.4287C11.3601 13.4287 11.9997 12.7891 11.9997 12.0001V2.00014C11.9997 1.21116 11.3601 0.571564 10.5712 0.571564C9.78217 0.571564 9.14258 1.21116 9.14258 2.00014Z" fill="white"/>
</svg>
