<svg width="85" height="85" viewBox="0 0 85 85" fill="none" xmlns="http://www.w3.org/2000/svg">
<path d="M72.5017 12.4417C66.5619 6.50282 58.9945 2.45845 50.7564 0.820022C42.5182 -0.818411 33.9792 0.0226638 26.2191 3.2369C18.4589 6.45114 11.826 11.8942 7.15912 18.8779C2.49221 25.8615 0.000831887 34.0722 0 42.4717C0.059645 53.7071 4.55707 64.4636 12.5124 72.3978C20.4677 80.3319 31.2362 84.8006 42.4717 84.8303C53.6785 84.7416 64.4011 80.2503 72.3257 72.3257C80.2504 64.4011 84.7416 53.6785 84.8303 42.4717C84.8601 36.9001 83.786 31.3777 81.6699 26.2235C79.5539 21.0692 76.4378 16.3852 72.5017 12.4417ZM16.4571 12.7811C20.9159 8.9197 26.1665 6.08206 31.8397 4.46769L33.4232 4.01527L32.2355 5.20289C29.9333 7.51774 28.0232 10.1919 26.5802 13.1204C25.7243 14.8086 24.969 16.546 24.318 18.3233V18.7757H23.9222C21.2775 17.3493 18.7938 15.6429 16.5136 13.6859L16.1743 13.3466L16.4571 12.7811ZM40.5489 26.1843H40.9448V41.0013H23.5263V40.5489C23.6323 34.8185 24.4298 29.1219 25.9015 23.5828V23.1304H26.354C30.8749 24.9567 35.6769 25.9898 40.5489 26.1843ZM3.05389 40.5489C3.53885 31.2235 7.30472 22.3697 13.686 15.5522L13.9687 15.2129V15.4956C16.733 17.8661 19.7708 19.8975 23.0173 21.5469H23.3566V21.8862C21.6823 27.9321 20.7704 34.1636 20.6421 40.4358V40.8882H3.05389V40.5489ZM14.0253 69.8436V69.5043C7.50788 62.7219 3.61847 53.8404 3.05389 44.4511V43.9986H20.5289V44.3945C20.6633 50.7073 21.5943 56.9778 23.3001 63.0572V63.3965C20.0577 65.0397 17.0521 67.1132 14.3646 69.5608L14.0253 69.8436ZM31.8397 80.5322C26.1967 78.9268 20.9811 76.0872 16.5702 72.2189H16.1743L16.5702 71.8795C18.7963 69.9056 21.2446 68.1975 23.8656 66.7897H24.318V67.2421C24.9323 68.9887 25.6693 70.6895 26.5236 72.332C27.9815 75.2686 29.8897 77.9591 32.179 80.306L33.3666 81.4936L31.8397 80.5322ZM41.0013 81.4936H40.4924C37.9286 80.6194 35.5874 79.1942 33.6334 77.3183C31.6793 75.4424 30.1598 73.1613 29.1816 70.6354C28.348 68.9638 27.6116 67.2455 26.976 65.489V65.0931H27.3719C31.5538 63.343 36.0183 62.3658 40.5489 62.2089H41.0013V81.4936ZM41.0013 58.8722H40.6055C35.7525 59.1525 30.9864 60.2818 26.5236 62.2089H26.1277V61.7565C24.6585 56.2152 23.8423 50.5212 23.6959 44.7904V43.9986H41.0013V58.8722ZM41.0013 23.1869H40.5489C36.0222 22.9563 31.5671 21.9621 27.3719 20.2461H26.976V19.8503C27.5941 18.0503 28.331 16.2932 29.1816 14.5908C30.1497 12.0652 31.6665 9.78618 33.6225 7.91818C35.5785 6.05017 37.9249 4.63985 40.4924 3.78905H41.0013V23.1869ZM71.0313 15.2129V15.5522C77.4125 22.3697 81.1784 31.2235 81.6633 40.5489V41.0013H64.4711V40.5489C64.3271 34.278 63.4155 28.0484 61.7565 21.9993V21.66H62.0958C65.2555 20.0112 68.1997 17.9787 70.8616 15.6087L71.0313 15.2129ZM53.1603 4.46769C58.8335 6.08206 64.0841 8.9197 68.5429 12.7811L68.8822 13.1204L68.5429 13.4597C66.2825 15.4421 63.7957 17.1506 61.1344 18.5495H60.7385V18.0971C60.0876 16.3198 59.3322 14.5824 58.4764 12.8942C57.0191 9.97419 55.1105 7.30222 52.821 4.97668L51.5769 4.01527L53.1603 4.46769ZM43.9987 3.50628H44.5077C47.0751 4.35708 49.4215 5.76741 51.3775 7.63541C53.3335 9.50341 54.8503 11.7825 55.8184 14.308C56.6654 16.0122 57.4021 17.7689 58.024 19.5675V19.9634H57.6281C53.431 21.6731 48.9769 22.6672 44.4511 22.9042H43.9987V3.50628ZM43.9987 26.1277H44.3945C49.2259 25.9019 53.9855 24.8697 58.4764 23.0738H58.9288V23.5262C60.4195 29.0615 61.2173 34.7605 61.3041 40.4923V40.9447H43.9987V26.1277ZM43.9987 43.8855H61.4737V44.338C61.3647 50.1687 60.5288 55.963 58.9854 61.5868V62.0392H58.5329C54.0541 60.2768 49.3156 59.2641 44.5077 59.0419H43.9987V43.8855ZM44.5077 81.2674H43.9987V61.8696H44.4511C48.9814 62.0733 53.441 63.0686 57.6281 64.8103H57.9674V65.2062C57.3424 66.9668 56.6057 68.6858 55.7618 70.3526C54.8104 72.9042 53.3089 75.215 51.3639 77.1209C49.4188 79.0268 47.078 80.4811 44.5077 81.3805V81.2674ZM68.4864 72.1058C64.0779 76.0209 58.8372 78.8829 53.1603 80.4757L51.6334 80.9281L52.7645 79.797C55.0671 77.4612 56.9768 74.7685 58.4198 71.823C59.2639 70.1756 60.0006 68.4755 60.6254 66.7332V66.2807H61.0779C63.7168 67.6879 66.1838 69.3959 68.4298 71.3706L68.7691 71.6533L68.4864 72.1058ZM71.2575 69.3912V69.7305H70.9747C68.3338 67.3026 65.3869 65.2303 62.2089 63.5662H61.8696V63.2268C63.5556 57.1449 64.4677 50.8745 64.5842 44.5642V43.9986H82.1158V44.4511C81.5821 53.8256 77.7336 62.7052 71.2575 69.5043V69.3912Z" fill="#F58635"/>
</svg>
