<svg xmlns="http://www.w3.org/2000/svg" width="34" height="34" fill="none" viewBox="0 0 34 34">
    <path fill="#C6C6C6" fill-rule="evenodd" d="M4.313 1.063a1 1 0 0 1 1-1h14.654a1 1 0 0 1 .72.307l8.722 9.076a1 1 0 0 1 .279.692v22.8a1 1 0 0 1-1 1H5.313a1 1 0 0 1-1-1V1.061zm2 1v29.875h21.375V10.54L19.54 2.062H6.312z" clip-rule="evenodd"/>
    <path fill="#C6C6C6" fill-rule="evenodd" d="M19.125 1.125a1 1 0 0 1 1 1v7.5h7.5a1 1 0 1 1 0 2h-8.5a1 1 0 0 1-1-1v-8.5a1 1 0 0 1 1-1z" clip-rule="evenodd"/>
</svg>
