<svg width="23" height="22" viewBox="0 0 23 22" fill="none" xmlns="http://www.w3.org/2000/svg">
<path d="M4.5 0C4.3 0 4 0.1 3.8 0.3L0.3 3.8C-0.1 4.2 -0.1 4.8 0.3 5.2C0.7 5.6 1.3 5.6 1.7 5.2L5.2 1.7C5.6 1.3 5.6 0.7 5.2 0.3C5.1 0.1 4.8 0 4.5 0ZM18.5 0C17.9 0 17.5 0.4 17.5 1C17.5 1.3 17.6 1.5 17.8 1.7L21.3 5.2C21.7 5.6 22.3 5.6 22.7 5.2C23.1 4.8 23.1 4.2 22.7 3.8L19.2 0.3C19.1 0.1 18.8 0 18.5 0ZM11.5 1C9 1 6.4 2 4.5 3.9C0.6 7.8 0.6 14.2 4.5 18.1C4.8 18.4 5.2 18.7 5.6 19L4.7 20.5C4.4 21 4.5 21.6 5 21.9C5.5 22.2 6.1 22.1 6.4 21.6C6.4 21.6 6.4 21.6 6.4 21.5L7.3 20C10 21.3 13.2 21.3 15.9 20L16.7 21.5C17 22 17.6 22.2 18.1 21.9C18.6 21.6 18.8 21 18.5 20.5C18.5 20.5 18.5 20.5 18.5 20.4L17.5 19C17.9 18.7 18.2 18.4 18.6 18.1C22.5 14.2 22.5 7.8 18.6 3.9C16.7 2 14.1 1 11.5 1ZM11.5 3C13.5 3 15.6 3.8 17.2 5.3C20.3 8.4 20.3 13.5 17.2 16.6C14.1 19.7 9 19.7 5.9 16.6C2.8 13.5 2.8 8.4 5.9 5.3C7.5 3.8 9.5 3 11.5 3ZM15.3 7.5C15 7.5 14.8 7.6 14.6 7.8L10.1 12.1L8.6 10.6C8.2 10.2 7.6 10.2 7.2 10.6C6.8 11 6.8 11.6 7.2 12L9.4 14.1C9.8 14.5 10.4 14.5 10.8 14.1L16 9.2C16.4 8.8 16.4 8.2 16.1 7.8C15.8 7.7 15.5 7.5 15.3 7.5Z" fill="#97999B"/>
</svg>
