<svg width="28" height="28" viewBox="0 0 28 28" fill="none" xmlns="http://www.w3.org/2000/svg">
<path d="M25.6615 1.49238C24.6645 0.495396 23.4694 0 22.0637 0H5.09019C3.6907 0 2.48936 0.495396 1.49238 1.49238C0.495396 2.48936 0 3.6907 0 5.09019V22.0637C0 23.4632 0.495396 24.6645 1.49238 25.6615C2.48936 26.6585 3.6907 27.1539 5.09019 27.1539H22.0637C23.4632 27.1539 24.6645 26.6585 25.6615 25.6615C26.6585 24.6645 27.1539 23.4632 27.1539 22.0637V5.09019C27.1539 3.6907 26.6585 2.48936 25.6615 1.49238ZM8.39077 21.9646C7.9511 22.4043 7.41236 22.6272 6.79312 22.6272C6.16768 22.6272 5.63513 22.4043 5.19546 21.9646C4.7558 21.525 4.53287 20.9862 4.53287 20.367C4.53287 19.7415 4.7558 19.209 5.19546 18.7693C5.63513 18.3296 6.17387 18.1067 6.79312 18.1067C7.41855 18.1067 7.9511 18.3296 8.39077 18.7693C8.83043 19.209 9.05336 19.7477 9.05336 20.367C9.05336 20.9924 8.83043 21.525 8.39077 21.9646ZM15.0972 22.4538C14.9795 22.5715 14.8433 22.6272 14.6885 22.6272H12.4282C12.2734 22.6272 12.1434 22.5777 12.0381 22.4786C11.9328 22.3795 11.8709 22.2495 11.8585 22.1008C11.7285 20.2865 11.0164 18.7322 9.72214 17.4317C8.42792 16.1375 6.86742 15.4254 5.05304 15.2953C4.89823 15.283 4.77438 15.2272 4.6753 15.122C4.57622 15.0167 4.52668 14.8866 4.52668 14.7318V12.4716C4.52668 12.3168 4.5886 12.1805 4.70626 12.0629C4.82392 11.9452 4.96634 11.8895 5.13354 11.9019C7.8706 12.0567 10.199 13.097 12.1372 15.0291C14.0692 16.9611 15.1158 19.2957 15.2644 22.0327C15.2706 22.1937 15.2148 22.3362 15.0972 22.4538ZM21.8841 22.4538C21.7665 22.5715 21.6302 22.6334 21.4754 22.6334H19.2152C19.0604 22.6334 18.9303 22.5777 18.825 22.4724C18.7198 22.3671 18.6578 22.2371 18.6455 22.0823C18.565 19.6796 17.9086 17.4503 16.6763 15.4006C15.444 13.3509 13.803 11.7099 11.7533 10.4776C9.70357 9.24533 7.47429 8.58893 5.07162 8.50842C4.9168 8.49604 4.78676 8.44031 4.68149 8.32884C4.57622 8.22357 4.52049 8.09353 4.52049 7.93872V5.67228C4.52049 5.51747 4.58241 5.38124 4.70007 5.26358C4.80534 5.14592 4.94157 5.09019 5.10877 5.10258C6.92316 5.15831 8.67562 5.4927 10.3662 6.09337C12.0567 6.69404 13.5924 7.51763 14.961 8.55796C16.3357 9.59829 17.5432 10.812 18.5835 12.1805C19.6239 13.5553 20.4475 15.0848 21.0481 16.7753C21.6488 18.4659 21.977 20.2183 22.0389 22.0327C22.0699 22.2123 22.0203 22.3485 21.8841 22.4538Z" fill="white"/>
</svg>
