<svg width="26" height="26" viewBox="0 0 26 26" fill="none" xmlns="http://www.w3.org/2000/svg">
<g clip-path="url(#clip0)">
<path d="M6.8898 0.951318C7.08632 0.919427 7.29909 0.916177 7.48323 1.00311C7.75582 1.11301 7.94869 1.37402 8.0147 1.65535C8.03715 1.85543 8.03065 2.06749 7.93599 2.2502C7.76415 2.62791 7.30702 2.84576 6.90574 2.74105C6.49401 2.64894 6.18759 2.25274 6.19155 1.83186C6.18363 1.42226 6.49715 1.04811 6.8898 0.951318Z" fill="white"/>
<path d="M18.6672 0.949864C18.8662 0.918684 19.0808 0.918278 19.2657 1.00968C19.5717 1.14456 19.779 1.46387 19.8011 1.79486C19.8008 2.04968 19.7156 2.31578 19.5267 2.49412C19.3661 2.66343 19.1348 2.75696 18.9039 2.76743C18.5465 2.7725 18.1862 2.55902 18.0462 2.22559C17.9556 2.04755 17.9668 1.84239 17.9785 1.64953C18.0462 1.3095 18.3311 1.02847 18.6672 0.949864Z" fill="white"/>
<path d="M17.4863 14.872C17.9521 14.8698 18.418 14.8694 18.8834 14.872C18.8776 16.7233 18.8824 18.575 18.8813 20.4263C18.4172 20.4263 17.9532 20.4267 17.4889 20.426C17.4878 18.5746 17.4928 16.7233 17.4863 14.872Z" fill="white"/>
<path d="M18.6683 0.950226C18.3322 1.02884 18.0474 1.30986 17.9796 1.64989C17.9679 1.84276 17.9568 2.04791 18.0474 2.22595C18.1873 2.55938 18.5477 2.77287 18.9051 2.76779C19.1359 2.75733 19.3673 2.66379 19.5278 2.49448C19.7167 2.31614 19.802 2.05005 19.8023 1.79523C19.7801 1.46423 19.5728 1.14492 19.2668 1.01005C19.082 0.91864 18.8674 0.919046 18.6683 0.950226ZM6.89153 0.951648C6.49889 1.04844 6.18537 1.42259 6.19329 1.83219C6.18933 2.25307 6.49564 2.64926 6.90748 2.74138C7.30875 2.84609 7.76588 2.62824 7.93773 2.25053C8.03238 2.06782 8.03888 1.85576 8.01644 1.65568C7.95042 1.37435 7.75755 1.11334 7.48496 1.00344C7.30083 0.916507 7.08805 0.919757 6.89153 0.951648ZM2.38551 0.142195C2.67923 0.0135149 3.00402 -0.00608671 3.32049 0.00193673C9.84598 0.00264767 16.3715 0.00193673 22.897 0.00153048C23.6089 -0.0103523 24.3025 0.429718 24.5903 1.08175C24.7117 1.3388 24.7632 1.62409 24.7581 1.90755C24.7553 2.54201 24.7646 3.17637 24.7544 3.81043C24.5439 3.7303 24.3169 3.70897 24.0933 3.70744C16.7097 3.70897 9.32619 3.70816 1.94259 3.70856C1.7088 3.71476 1.46951 3.72481 1.24872 3.81083C1.23927 3.15169 1.24435 2.49276 1.24222 1.83402C1.23785 1.10755 1.71093 0.410116 2.38551 0.142195Z" fill="#C7C7C7"/>
<path d="M18.5585 9.31474C18.6629 9.27158 18.7766 9.27381 18.8872 9.28245C18.8807 11.14 18.8881 12.9978 18.8837 14.8553L18.8833 14.8719C18.4178 14.8694 17.952 14.8698 17.4862 14.8719V14.8557C17.4855 13.5713 17.4851 12.2874 17.4865 11.0029C16.5578 11.3118 15.6309 11.6257 14.7018 11.9327C14.6989 11.5134 14.7039 11.0939 14.6992 10.6746C15.984 10.2166 17.273 9.77005 18.5585 9.31474Z" fill="#C7C7C7"/>
<path d="M7.1933 9.98214C7.77516 9.53882 8.50336 9.30969 9.23065 9.28247C9.95205 9.25708 10.6987 9.37378 11.3298 9.74032C11.8291 10.0263 12.2242 10.4842 12.4395 11.0171C12.6541 11.5492 12.7223 12.1376 12.6571 12.7064C12.5174 13.6174 11.8139 14.3533 10.9916 14.7172C11.1091 14.7527 11.2237 14.7973 11.3332 14.8528C11.261 14.8666 11.1882 14.8745 11.1149 14.8724C10.1449 14.8655 9.17479 14.8789 8.20537 14.8658C8.20182 14.6552 8.19674 14.4443 8.21015 14.234C8.90941 14.2173 9.64716 14.3028 10.3014 13.9962C10.839 13.7693 11.2388 13.2552 11.3147 12.6749C11.3799 12.122 11.3241 11.5174 10.9964 11.0494C10.7386 10.6789 10.3018 10.4737 9.86501 10.4088C9.27554 10.3265 8.6292 10.3852 8.13438 10.743C7.64719 11.0856 7.38942 11.6902 7.40171 12.2771C6.95291 12.2891 6.5038 12.28 6.05469 12.2815C6.06342 12.035 6.08221 11.787 6.1464 11.5481C6.30077 10.9258 6.68184 10.3663 7.1933 9.98214Z" fill="#C7C7C7"/>
<path d="M1.24785 3.81045C1.46865 3.72453 1.70793 3.71437 1.94173 3.70818C9.32532 3.70787 16.7088 3.70859 24.0924 3.70706C24.316 3.70859 24.543 3.73001 24.7536 3.81005C25.3917 4.04029 25.9085 4.63118 25.9753 5.31561C25.8455 4.84649 25.565 4.40998 25.1455 4.1515C24.8417 3.96198 24.4872 3.8525 24.1284 3.85575C16.7212 3.86083 9.31364 3.86083 1.90618 3.86083C1.3483 3.85067 0.786047 4.09137 0.430477 4.52566C0.25782 4.71019 0.167633 4.94836 0.046875 5.1655C0.166516 4.5413 0.654828 4.02109 1.24785 3.81045Z" fill="#4483EF"/>
<path d="M17.4592 14.8578L17.4853 14.8557V14.872C17.4918 16.7233 17.4867 18.5746 17.4879 20.426C17.9522 20.4267 18.4163 20.4264 18.8803 20.4264C18.8813 18.575 18.8766 16.7233 18.8824 14.872L18.8828 14.8553L18.9053 14.8571C19.11 14.8818 19.3167 14.8669 19.5226 14.8691C21.2674 14.868 23.0125 14.8659 24.7572 14.8691C24.9588 17.7869 25.1483 20.7055 25.3478 23.6233C25.3673 23.9568 25.4097 24.2994 25.3173 24.6264L25.309 24.6369C25.2234 24.733 25.1741 24.8526 25.1129 24.9642C24.7855 25.4985 24.1772 25.8582 23.5465 25.8521C16.5859 25.848 9.62581 25.8552 2.66563 25.8527C2.44738 25.8527 2.22485 25.864 2.01198 25.8067C1.53098 25.6755 1.09487 25.3604 0.852742 24.92C0.801961 24.8236 0.754836 24.7246 0.686992 24.639L0.67836 24.627C0.561969 24.1899 0.656625 23.7367 0.671149 23.2938C0.862492 20.4872 1.0448 17.6797 1.23878 14.8731C3.55847 14.8673 5.87856 14.8698 8.19815 14.8717C8.20038 15.005 8.2015 15.1385 8.19967 15.2718C8.93478 15.2859 9.70412 15.1979 10.4004 15.4889C10.8706 15.6725 11.2567 16.0654 11.4054 16.5508C11.5692 17.0879 11.5503 17.6825 11.3579 18.21C11.1784 18.7044 10.7485 19.0865 10.2464 19.2341C9.63668 19.4145 8.95763 19.399 8.3704 19.147C7.91327 18.9517 7.54023 18.558 7.39926 18.0781C7.33223 17.8666 7.30613 17.6444 7.30206 17.4237C6.85763 17.4266 6.41319 17.4255 5.96875 17.4241C5.97708 17.9863 6.11348 18.5573 6.4273 19.0292C6.76195 19.5455 7.28104 19.9225 7.84989 20.1436C8.57088 20.4249 9.36764 20.4877 10.13 20.3709C10.8714 20.2535 11.5974 19.9213 12.101 19.3533C12.5635 18.84 12.8028 18.1534 12.8343 17.4687C12.8767 16.8151 12.7263 16.1285 12.3112 15.6093C12.0778 15.302 11.7569 15.0801 11.4293 14.8851C11.5887 14.8652 11.7497 14.8694 11.9103 14.8702C13.5539 14.8687 15.1975 14.8705 16.8411 14.8694C17.047 14.8652 17.254 14.8821 17.4592 14.8578Z" fill="#4483EF"/>
<path d="M0.43101 4.52564C0.78658 4.09136 1.34883 3.85066 1.90671 3.86082C9.31427 3.86082 16.7217 3.86082 24.1289 3.85574C24.4877 3.85249 24.8423 3.96197 25.146 4.15149C25.5655 4.40996 25.8461 4.84648 25.9759 5.3156C26.0118 5.48125 26.0019 5.65309 25.9831 5.82057C25.5807 8.83484 25.1635 11.8472 24.7665 14.8622C23.0921 14.8593 21.4177 14.8637 19.7436 14.8619C19.4644 14.8596 19.1849 14.8723 18.9062 14.8572L18.8837 14.8554C18.8881 12.9978 18.8809 11.14 18.8874 9.28242C18.7768 9.27379 18.663 9.27156 18.5586 9.31472C17.2731 9.77003 15.9841 10.2167 14.6993 10.6745C14.704 11.0939 14.6989 11.5133 14.7019 11.9328C15.631 11.6258 16.5579 11.3117 17.4866 11.0029C17.4852 12.2874 17.4855 13.5713 17.4863 14.8557L17.4602 14.8578C15.5146 14.8723 13.5683 14.8582 11.6227 14.8655C11.5266 14.8633 11.4252 14.893 11.3338 14.8528C11.2243 14.7974 11.1098 14.7528 10.9923 14.7172C11.8144 14.3532 12.5181 13.6174 12.6577 12.7064C12.7229 12.1377 12.6548 11.5493 12.4402 11.0171C12.2249 10.4842 11.8297 10.0264 11.3305 9.74037C10.6994 9.37383 9.9526 9.25714 9.2312 9.28242C8.50401 9.30964 7.77571 9.53877 7.19396 9.98219C6.68249 10.3664 6.30142 10.9257 6.14705 11.5482C6.08286 11.7871 6.06397 12.035 6.05524 12.2816C6.50445 12.28 6.95356 12.2891 7.40236 12.2772C7.39007 11.6903 7.64784 11.0856 8.13503 10.743C8.62985 10.3852 9.27619 10.3265 9.86566 10.4088C10.3025 10.4737 10.7393 10.6788 10.9971 11.0493C11.3247 11.5173 11.3806 12.122 11.3153 12.6748C11.2395 13.2552 10.8396 13.7693 10.3021 13.9962C9.64781 14.3029 8.91006 14.2173 8.2108 14.234L8.19343 14.2343C8.20064 14.4449 8.19232 14.656 8.1981 14.8669C5.8773 14.8633 3.55619 14.8626 1.23508 14.8672C0.839189 11.9139 0.437205 8.96128 0.0391817 6.00835C-0.00662303 5.72987 -0.0221621 5.44103 0.0475098 5.16549C0.168166 4.94835 0.258455 4.71018 0.43101 4.52564Z" fill="#3664D0"/>
<path d="M0.6875 24.639C0.755242 24.7247 0.802469 24.8236 0.853148 24.9201C1.09537 25.3604 1.53148 25.6755 2.01248 25.8067C2.22526 25.864 2.44788 25.8527 2.66604 25.8527C9.62622 25.8552 16.5864 25.848 23.5469 25.852C24.1777 25.8582 24.7859 25.4986 25.1133 24.9642C25.1746 24.8526 25.2239 24.733 25.3094 24.6369C25.1557 25.2318 24.6773 25.7254 24.0922 25.9089C23.7659 26.0228 23.4161 25.9941 23.0772 25.9977C16.2979 25.9977 9.51856 25.9974 2.73937 25.9974C2.46891 25.9996 2.19225 26.0021 1.93195 25.9176C1.33527 25.7407 0.84482 25.2422 0.6875 24.639Z" fill="#3664D0"/>
</g>
<defs>
<clipPath id="clip0">
<rect width="26" height="26" fill="white"/>
</clipPath>
</defs>
</svg>
