<svg width="20" height="29" viewBox="0 0 20 29" fill="none" xmlns="http://www.w3.org/2000/svg">
<path d="M0.0615387 4.45645L0.0307694 4.58111L0 22.999C0 25.8661 4.30769 28.0476 10 28.0476C15.6923 28.0476 20 25.8661 20 22.9679V5.07973C20 2.18148 15.6923 0 10 0C4.76923 0 0.615385 1.86984 0.0615387 4.45645ZM1.56923 10.9074V6.85608C2.98462 8.35195 6.18462 9.3492 10 9.3492C13.8462 9.3492 17.0462 8.32079 18.4615 6.79375V10.9074C18.4615 12.8084 14.5846 14.4289 10 14.4289C5.63077 14.4289 1.87692 12.9642 1.56923 11.1879V10.9074ZM1.53846 17.1402V12.6838C2.95385 14.1796 6.15385 15.208 9.96923 15.208C13.8154 15.208 17.0154 14.1796 18.4308 12.6526V17.1402C18.4308 19.0412 14.5538 20.6617 9.96923 20.6617C5.53846 20.6617 1.75385 19.1659 1.50769 17.3272L1.53846 17.1402ZM1.53846 22.999V18.9166C2.95385 20.4124 6.15385 21.4408 10 21.4408C13.8462 21.4408 17.0462 20.4124 18.4615 18.8854V22.999C18.4615 23.0614 18.4615 23.0925 18.4615 23.1549C18.3692 23.9963 17.4462 24.8377 15.9077 25.4922C14.0615 26.2401 12 26.4894 10 26.4894C8 26.4894 5.93846 26.2401 4.09231 25.461C2.58462 24.8377 1.66154 23.9651 1.53846 23.1549C1.53846 23.0925 1.53846 23.0302 1.53846 22.999ZM18.4615 5.07973C18.4615 7.0119 14.6769 8.60127 10 8.60127C5.32308 8.60127 1.53846 7.04307 1.53846 5.07973C1.53846 3.1164 5.32308 1.5582 10 1.5582C14.6769 1.5582 18.4615 3.1164 18.4615 5.07973Z" fill="white"/>
<path d="M15 6.00684C16.1429 6.00684 17 5.58578 17 5.00684C17 4.42789 16.1429 4.00684 15 4.00684C13.8571 4.00684 13 4.42789 13 5.00684C13 5.58578 13.8571 6.00684 15 6.00684ZM15 4.69105C15.7619 4.69105 16.2063 4.92789 16.2063 5.03315C16.2063 5.13841 15.7937 5.37526 15 5.37526C14.2063 5.37526 13.7937 5.13841 13.7937 5.03315C13.7937 4.92789 14.2381 4.69105 15 4.69105Z" fill="white"/>
</svg>
