<svg width="18" height="22" viewBox="0 0 18 22" fill="none" xmlns="http://www.w3.org/2000/svg">
<path d="M17 9C17 9.97512 16.5452 11.2217 15.7292 12.6257C14.9275 14.005 13.8447 15.4234 12.7403 16.7137C11.6391 18.0002 10.5351 19.1379 9.70479 19.955C9.43787 20.2177 9.19983 20.4467 9 20.6363C8.80017 20.4467 8.56213 20.2177 8.29521 19.955C7.46494 19.1379 6.36087 18.0002 5.25971 16.7137C4.15528 15.4234 3.07246 14.005 2.27083 12.6257C1.45481 11.2217 1 9.97512 1 9C1 4.58172 4.58172 1 9 1C13.4183 1 17 4.58172 17 9Z" stroke="#D9D9D6" stroke-width="2"/>
<circle cx="9" cy="8" r="2" stroke="#D9D9D6" stroke-width="2"/>
</svg>
