<svg width="58" height="72" viewBox="0 0 58 72" fill="none" xmlns="http://www.w3.org/2000/svg">
<path d="M56 29.2222C56 32.6913 54.4029 36.9368 51.7396 41.5192C49.1051 46.0521 45.5644 50.6852 41.9806 54.8722C38.4033 59.0516 34.8201 62.7436 32.1283 65.3928C30.8495 66.6515 29.7743 67.6723 29 68.3954C28.2257 67.6723 27.1505 66.6515 25.8717 65.3928C23.1799 62.7436 19.5967 59.0516 16.0194 54.8722C12.4356 50.6852 8.89492 46.0521 6.26041 41.5192C3.59711 36.9368 2 32.6913 2 29.2222C2 14.3105 14.0883 2.22223 29 2.22223C43.9117 2.22223 56 14.3105 56 29.2222Z" stroke="#D9D9D6" stroke-width="4"/>
<circle cx="29.0026" cy="26" r="7.66667" stroke="#D9D9D6" stroke-width="4"/>
</svg>
