<svg version="1.1" id="Layer_1" xmlns="http://www.w3.org/2000/svg" xmlns:xlink="http://www.w3.org/1999/xlink" x="0px" y="0px"
	 width="14px" height="11px" viewBox="0 0 14 11" enable-background="new 0 0 14 11" xml:space="preserve">
<g>
	<defs>
		<rect id="SVGID_1_" width="14" height="11"/>
	</defs>
	<clipPath id="SVGID_2_">
		<use xlink:href="#SVGID_1_"  overflow="visible"/>
	</clipPath>
	<g clip-path="url(#SVGID_2_)">
		<path fill="#97999B" d="M14,1.306c-0.527,0.223-1.084,0.367-1.652,0.43c0.594-0.338,1.043-0.882,1.262-1.53
			c-0.551,0.318-1.172,0.55-1.82,0.67C11.237,0.312,10.48-0.005,9.691,0c-1.59,0-2.871,1.246-2.871,2.776
			c0,0.215,0.027,0.43,0.071,0.636c-2.379-0.12-4.502-1.22-5.915-2.905c-0.249,0.413-0.39,0.885-0.39,1.4
			c0,0.963,0.506,1.814,1.278,2.313C1.412,4.203,0.969,4.082,0.57,3.867v0.035c0,1.349,0.986,2.466,2.3,2.724
			c-0.247,0.062-0.5,0.093-0.755,0.095c-0.186,0-0.364-0.018-0.542-0.043c0.365,1.1,1.422,1.899,2.683,1.924
			C3.23,9.377,1.979,9.793,0.693,9.788C0.461,9.789,0.23,9.778,0,9.754c1.323,0.82,2.85,1.252,4.406,1.246
			c5.277,0,8.164-4.229,8.164-7.898c0-0.12,0-0.24-0.01-0.36C13.117,2.348,13.604,1.862,14,1.306L14,1.306z"/>
	</g>
</g>
</svg>
