<svg width="35" height="25" viewBox="0 0 35 25" fill="none" xmlns="http://www.w3.org/2000/svg">
<path fill-rule="evenodd" clip-rule="evenodd" d="M32.5729 1.79958C33.5787 2.84031 33.907 5.20367 33.907 5.20367C33.907 5.20367 34.2426 7.97967 34.2426 10.7546V13.357C34.2426 16.133 33.907 18.9079 33.907 18.9079C33.907 18.9079 33.5787 21.2713 32.5729 22.312C31.4229 23.5431 30.1478 23.6704 29.4271 23.7423C29.3478 23.7502 29.2752 23.7574 29.2103 23.7654C24.5136 24.1126 17.4612 24.1234 17.4612 24.1234C17.4612 24.1234 8.73479 24.0419 6.04976 23.7782C5.92254 23.7539 5.76833 23.735 5.59369 23.7136C4.74318 23.6094 3.40826 23.4458 2.34839 22.312C1.34255 21.2713 1.01532 18.9079 1.01532 18.9079C1.01532 18.9079 0.679688 16.133 0.679688 13.357V10.7546C0.679688 7.97967 1.01532 5.20367 1.01532 5.20367C1.01532 5.20367 1.34255 2.84031 2.34839 1.79958C3.50092 0.566684 4.77724 0.440854 5.49804 0.369792C5.57619 0.362087 5.64781 0.355026 5.71203 0.347268C10.4087 0 17.4538 0 17.4538 0H17.4685C17.4685 0 24.5136 0 29.2103 0.347268C29.2745 0.355038 29.3461 0.362108 29.4244 0.369826C30.1446 0.440895 31.4215 0.566885 32.5729 1.79958ZM13.9922 6.87354L13.9932 16.5102L23.0605 11.7085L13.9922 6.87354Z" fill="white"/>
</svg>
