<svg width="16" height="16" viewBox="0 0 16 16" fill="none" xmlns="http://www.w3.org/2000/svg">
<path fill-rule="evenodd" clip-rule="evenodd" d="M3.60034 5.42366V15.6372H0.201011V5.42366H3.60034ZM3.82423 2.26419C3.82423 3.24488 3.08603 4.02959 1.90074 4.02959H1.87902C0.737786 4.02959 0 3.24488 0 2.26419C0 1.26275 0.760257 0.5 1.92315 0.5C3.08603 0.5 3.80216 1.26275 3.82423 2.26419ZM15.8596 9.78108L15.8595 15.6372H12.4603V10.173C12.4603 8.80045 11.9684 7.86389 10.7378 7.86389C9.79868 7.86389 9.2393 8.49527 8.99362 9.10509C8.90374 9.32364 8.88167 9.62815 8.88167 9.9334V15.6375H5.48194C5.48194 15.6375 5.52674 6.38231 5.48194 5.42393H8.88167V6.87059C9.33284 6.17515 10.1409 5.18382 11.9457 5.18382C14.1826 5.18382 15.8596 6.64391 15.8596 9.78108Z" fill="white"/>
</svg>
