<svg width="86" height="58" viewBox="0 0 86 58" fill="none" xmlns="http://www.w3.org/2000/svg">
<path fill-rule="evenodd" clip-rule="evenodd" d="M7.99117 56.7175H78.1148C81.9281 56.7175 85 53.5397 85 49.7264V7.99117C85 4.07188 81.8222 1 78.0088 1H7.99117C4.07188 1 1 4.1778 1 7.99117V49.7264C1 53.6457 4.17781 56.7175 7.99117 56.7175ZM3.11854 8.0971C3.11854 5.343 5.343 3.22446 7.99117 3.22446V3.11854H78.0088C80.7629 3.11854 82.8815 5.343 82.8815 7.99117V49.8323C82.8815 52.5864 80.657 54.7049 78.0088 54.7049H7.99117C5.23707 54.7049 3.11854 52.4805 3.11854 49.8323V8.0971ZM40.1888 33.7317C41.0362 34.3673 42.0955 34.685 43.0488 34.685C44.0021 34.685 45.0614 34.3673 45.9088 33.7317L51.078 29.7374L76.7349 48.7731L77.1586 49.0909C77.3704 49.1968 77.5823 49.3027 77.7941 49.3027C78.1119 49.3027 78.4297 49.0909 78.7475 48.879C79.0652 48.4553 78.9593 47.7138 78.5356 47.3961L52.8216 28.39L76.2039 10.3219C76.7336 10.0041 76.7336 9.26259 76.4158 8.83888C76.098 8.30925 75.3565 8.30925 74.9328 8.62703L44.5318 32.0369C43.5784 32.7784 42.4132 32.7784 41.4599 32.0369L35.9182 27.7546C35.841 27.6657 35.7442 27.5926 35.636 27.5366L11.1648 8.62703C10.7411 8.30925 9.99962 8.41517 9.68184 8.83888C9.36406 9.26259 9.46999 10.0041 9.8937 10.3219L33.3297 28.4315L8.09572 47.0783L7.67202 47.3961C7.24831 47.7138 7.14238 48.4553 7.46016 48.879C7.67202 49.1968 7.9898 49.3027 8.30758 49.3027C8.51942 49.3027 8.73126 49.1968 8.9431 49.0909L8.94314 49.0909L35.0723 29.778L40.1888 33.7317Z" fill="#D9D9D6"/>
<path d="M7.99117 3.22446V3.72446H8.49117V3.22446H7.99117ZM7.99117 3.11854V2.61854H7.49117V3.11854H7.99117ZM40.1888 33.7317L39.883 34.1274L39.8888 34.1317L40.1888 33.7317ZM45.9088 33.7317L46.2089 34.1317L46.2146 34.1273L45.9088 33.7317ZM51.078 29.7374L51.3759 29.3358L51.0718 29.1102L50.7723 29.3417L51.078 29.7374ZM76.7349 48.7731L77.0349 48.3731L77.0328 48.3716L76.7349 48.7731ZM77.1586 49.0909L76.8586 49.4909L76.8946 49.5179L76.9349 49.5381L77.1586 49.0909ZM78.7475 48.879L79.0248 49.2951L79.0961 49.2475L79.1475 49.179L78.7475 48.879ZM78.5356 47.3961L78.8356 46.996L78.8328 46.994L78.5356 47.3961ZM52.8216 28.39L52.5159 27.9944L51.9924 28.3989L52.5244 28.7921L52.8216 28.39ZM76.2039 10.3219L75.9467 9.89311L75.9215 9.90824L75.8982 9.92622L76.2039 10.3219ZM76.4158 8.83888L75.987 9.09613L76.0003 9.11825L76.0158 9.13888L76.4158 8.83888ZM74.9328 8.62703L74.6328 8.227L74.6277 8.23087L74.9328 8.62703ZM44.5318 32.0369L44.2267 31.6407L44.2248 31.6422L44.5318 32.0369ZM41.4599 32.0369L41.7669 31.6422L41.7656 31.6412L41.4599 32.0369ZM35.9182 27.7546L35.5406 28.0824L35.5732 28.1199L35.6125 28.1503L35.9182 27.7546ZM35.636 27.5366L35.3302 27.9322L35.366 27.9598L35.406 27.9805L35.636 27.5366ZM11.1648 8.62703L11.4706 8.23134L11.4648 8.22703L11.1648 8.62703ZM9.68184 8.83888L9.28184 8.53888H9.28184L9.68184 8.83888ZM9.8937 10.3219L10.1995 9.92618L10.1937 9.92186L9.8937 10.3219ZM33.3297 28.4315L33.6268 28.8336L34.159 28.4404L33.6354 28.0358L33.3297 28.4315ZM8.09572 47.0783L7.79857 46.6761L7.79572 46.6783L8.09572 47.0783ZM7.67202 47.3961L7.97202 47.7961H7.97202L7.67202 47.3961ZM7.46016 48.879L7.87619 48.6017L7.86849 48.5901L7.86016 48.579L7.46016 48.879ZM8.9431 49.0909L9.16678 49.5383L9.17839 49.5321L8.9431 49.0909ZM8.94314 49.0909L9.17843 49.5321L9.21082 49.5148L9.24033 49.493L8.94314 49.0909ZM35.0723 29.778L35.378 29.3824L35.079 29.1513L34.7751 29.3759L35.0723 29.778ZM78.1148 56.2175H7.99117V57.2175H78.1148V56.2175ZM84.5 49.7264C84.5 53.2736 81.6421 56.2175 78.1148 56.2175V57.2175C82.2141 57.2175 85.5 53.8059 85.5 49.7264H84.5ZM84.5 7.99117V49.7264H85.5V7.99117H84.5ZM78.0088 1.5C81.551 1.5 84.5 4.35294 84.5 7.99117H85.5C85.5 3.79081 82.0934 0.5 78.0088 0.5V1.5ZM7.99117 1.5H78.0088V0.5H7.99117V1.5ZM1.5 7.99117C1.5 4.449 4.35294 1.5 7.99117 1.5V0.5C3.79081 0.5 0.5 3.90661 0.5 7.99117H1.5ZM1.5 49.7264V7.99117H0.5V49.7264H1.5ZM7.99117 56.2175C4.449 56.2175 1.5 53.3646 1.5 49.7264H0.5C0.5 53.9267 3.90661 57.2175 7.99117 57.2175V56.2175ZM7.99117 2.72446C5.07397 2.72446 2.61854 5.0598 2.61854 8.0971H3.61854C3.61854 5.6262 5.61203 3.72446 7.99117 3.72446V2.72446ZM7.49117 3.11854V3.22446H8.49117V3.11854H7.49117ZM78.0088 2.61854H7.99117V3.61854H78.0088V2.61854ZM83.3815 7.99117C83.3815 5.07397 81.0461 2.61854 78.0088 2.61854V3.61854C80.4797 3.61854 82.3815 5.61203 82.3815 7.99117H83.3815ZM83.3815 49.8323V7.99117H82.3815V49.8323H83.3815ZM78.0088 55.2049C80.926 55.2049 83.3815 52.8696 83.3815 49.8323H82.3815C82.3815 52.3032 80.388 54.2049 78.0088 54.2049V55.2049ZM7.99117 55.2049H78.0088V54.2049H7.99117V55.2049ZM2.61854 49.8323C2.61854 52.7495 4.95387 55.2049 7.99117 55.2049V54.2049C5.52028 54.2049 3.61854 52.2114 3.61854 49.8323H2.61854ZM2.61854 8.0971V49.8323H3.61854V8.0971H2.61854ZM43.0488 34.185C42.1979 34.185 41.2451 33.899 40.4888 33.3317L39.8888 34.1317C40.8273 34.8356 41.9931 35.185 43.0488 35.185V34.185ZM45.6088 33.3317C44.8525 33.899 43.8997 34.185 43.0488 34.185V35.185C44.1045 35.185 45.2704 34.8356 46.2088 34.1317L45.6088 33.3317ZM50.7723 29.3417L45.6031 33.3361L46.2146 34.1273L51.3837 30.133L50.7723 29.3417ZM77.0328 48.3716L51.3759 29.3358L50.7801 30.1389L76.4369 49.1747L77.0328 48.3716ZM77.4586 48.6909L77.0349 48.3731L76.4349 49.1731L76.8586 49.4909L77.4586 48.6909ZM77.7941 48.8027C77.7233 48.8027 77.623 48.7641 77.3822 48.6437L76.9349 49.5381C77.1178 49.6295 77.4413 49.8027 77.7941 49.8027V48.8027ZM78.4701 48.463C78.3055 48.5728 78.1731 48.6602 78.0472 48.7231C77.9224 48.7855 77.8437 48.8027 77.7941 48.8027V49.8027C78.0623 49.8027 78.3014 49.714 78.4944 49.6175C78.6863 49.5216 78.8717 49.3971 79.0248 49.2951L78.4701 48.463ZM78.2356 47.7961C78.3174 47.8574 78.3989 47.9887 78.4246 48.1685C78.4503 48.3483 78.4088 48.4973 78.3475 48.579L79.1475 49.179C79.4039 48.8371 79.4683 48.4034 79.4146 48.0271C79.3608 47.6508 79.1776 47.2525 78.8356 46.9961L78.2356 47.7961ZM52.5244 28.7921L78.2384 47.7981L78.8328 46.994L53.1188 27.9879L52.5244 28.7921ZM75.8982 9.92622L52.5159 27.9944L53.1273 28.7857L76.5096 10.7175L75.8982 9.92622ZM76.0158 9.13888C76.0961 9.24602 76.1452 9.41204 76.1299 9.57269C76.1155 9.72402 76.0504 9.83089 75.9467 9.89311L76.4612 10.7506C76.8871 10.495 77.0868 10.0723 77.1254 9.6675C77.163 9.27203 77.0532 8.85545 76.8158 8.53888L76.0158 9.13888ZM75.2328 9.02703C75.3399 8.94668 75.5059 8.89762 75.6666 8.91292C75.8179 8.92734 75.9248 8.99243 75.987 9.09613L76.8445 8.58164C76.589 8.1557 76.1662 7.95598 75.7614 7.91743C75.3659 7.87976 74.9494 7.9896 74.6328 8.22703L75.2328 9.02703ZM44.8368 32.433L75.2378 9.02319L74.6277 8.23087L44.2267 31.6407L44.8368 32.433ZM41.1529 32.4315C42.2868 33.3135 43.7049 33.3135 44.8388 32.4315L44.2248 31.6422C43.452 32.2432 42.5397 32.2432 41.7669 31.6422L41.1529 32.4315ZM35.6125 28.1503L41.1542 32.4325L41.7656 31.6412L36.2239 27.359L35.6125 28.1503ZM35.406 27.9805C35.4655 28.0113 35.5099 28.0471 35.5406 28.0824L36.2958 27.4269C36.172 27.2843 36.0229 27.1739 35.8659 27.0926L35.406 27.9805ZM10.8591 9.02267L35.3302 27.9322L35.9417 27.1409L11.4705 8.23139L10.8591 9.02267ZM10.0818 9.13888C10.1432 9.05712 10.2745 8.97556 10.4543 8.94987C10.6341 8.92418 10.7831 8.96571 10.8648 9.02703L11.4648 8.22703C11.1229 7.97057 10.6892 7.90617 10.3129 7.95992C9.9366 8.01368 9.5383 8.19694 9.28184 8.53888L10.0818 9.13888ZM10.1937 9.92186C10.1119 9.86054 10.0304 9.7292 10.0047 9.54938C9.979 9.36957 10.0205 9.22064 10.0818 9.13888L9.28184 8.53888C9.02538 8.88083 8.96098 9.3145 9.01474 9.6908C9.06849 10.0671 9.25175 10.4654 9.5937 10.7219L10.1937 9.92186ZM33.6354 28.0358L10.1994 9.92622L9.58797 10.7175L33.024 28.8271L33.6354 28.0358ZM8.39287 47.4804L33.6268 28.8336L33.0325 28.0294L7.79857 46.6762L8.39287 47.4804ZM7.97202 47.7961L8.39572 47.4783L7.79572 46.6783L7.37202 46.9961L7.97202 47.7961ZM7.86016 48.579C7.79884 48.4973 7.75732 48.3483 7.78301 48.1685C7.80869 47.9887 7.89026 47.8574 7.97202 47.7961L7.37202 46.9961C7.03007 47.2525 6.84681 47.6508 6.79306 48.0271C6.7393 48.4034 6.8037 48.8371 7.06016 49.179L7.86016 48.579ZM8.30758 48.8027C8.10507 48.8027 7.96981 48.7421 7.87619 48.6017L7.04414 49.1564C7.37423 49.6515 7.87452 49.8027 8.30758 49.8027V48.8027ZM8.71949 48.6437C8.47863 48.7641 8.37842 48.8027 8.30758 48.8027V49.8027C8.66041 49.8027 8.98389 49.6295 9.1667 49.5381L8.71949 48.6437ZM8.70784 48.6497L8.7078 48.6497L9.17839 49.5321L9.17843 49.5321L8.70784 48.6497ZM34.7751 29.3759L8.64594 48.6888L9.24033 49.493L35.3695 30.1801L34.7751 29.3759ZM40.4945 33.3361L35.378 29.3824L34.7666 30.1737L39.8831 34.1273L40.4945 33.3361Z" fill="#D9D9D6"/>
</svg>
