<svg width="8" height="8" viewBox="0 0 8 8" fill="none" xmlns="http://www.w3.org/2000/svg">
<path d="M3.64645 4.35355C3.84171 4.54882 4.15829 4.54882 4.35355 4.35355L7.53553 1.17157C7.7308 0.976311 7.7308 0.659728 7.53553 0.464466C7.34027 0.269204 7.02369 0.269204 6.82843 0.464466L4 3.29289L1.17157 0.464466C0.976311 0.269204 0.659728 0.269204 0.464466 0.464466C0.269204 0.659728 0.269204 0.976311 0.464466 1.17157L3.64645 4.35355ZM3.5 3V4H4.5V3H3.5Z" fill="#97999B"/>
<path d="M4.35355 3.64645C4.15829 3.45118 3.84171 3.45118 3.64645 3.64645L0.464466 6.82843C0.269204 7.02369 0.269204 7.34027 0.464466 7.53553C0.659728 7.7308 0.976311 7.7308 1.17157 7.53553L4 4.70711L6.82843 7.53553C7.02369 7.7308 7.34027 7.7308 7.53553 7.53553C7.7308 7.34027 7.7308 7.02369 7.53553 6.82843L4.35355 3.64645ZM4.5 5V4H3.5V5H4.5Z" fill="#97999B"/>
</svg>
