<svg width="84" height="84" viewBox="0 0 84 84" fill="none" xmlns="http://www.w3.org/2000/svg">
<g opacity="0.9">
<circle cx="41.9975" cy="25.7748" r="9.77481" stroke="#E5E5E5" stroke-width="2"/>
<path d="M28 47.3244C30.7945 42.4935 36.0177 39.2433 42 39.2433C47.9823 39.2433 53.2055 42.4935 56 47.3244" stroke="#E5E5E5" stroke-width="2"/>
<circle cx="66.9992" cy="61.7646" r="8.23555" stroke="#E5E5E5" stroke-width="2"/>
<path d="M55 80.2357C57.3953 76.095 61.8723 73.3091 67 73.3091C72.1277 73.3091 76.6047 76.095 79 80.2357" stroke="#E5E5E5" stroke-width="2"/>
<circle cx="19.9992" cy="61.7646" r="8.23555" stroke="#E5E5E5" stroke-width="2"/>
<path d="M8 80.2357C10.3953 76.095 14.8723 73.3091 20 73.3091C25.1277 73.3091 29.6047 76.095 32 80.2357" stroke="#E5E5E5" stroke-width="2"/>
<path d="M52 67L43 67M34 67L43 67M43 67L43 53" stroke="#D9D9D6" stroke-linejoin="round" stroke-dasharray="1 1"/>
</g>
</svg>
