<svg width="15" height="8" viewBox="0 0 16 9" fill="none" xmlns="http://www.w3.org/2000/svg">
<mask id="path-1-inside-1" fill="white">
<path fill-rule="evenodd" clip-rule="evenodd" d="M14.7017 1.63282L8.22017 7.71985C7.82243 8.09338 7.17757 8.09338 6.77983 7.71985L0.298304 1.63282C-0.099434 1.25929 -0.099434 0.653678 0.298304 0.280148C0.696043 -0.0933826 1.34091 -0.0933826 1.73864 0.280148L7.5 5.69084L13.2614 0.280148C13.6591 -0.0933826 14.304 -0.0933826 14.7017 0.280148C15.0994 0.653678 15.0994 1.25929 14.7017 1.63282Z"/>
</mask>
<path fill-rule="evenodd" clip-rule="evenodd" d="M14.7017 1.63282L8.22017 7.71985C7.82243 8.09338 7.17757 8.09338 6.77983 7.71985L0.298304 1.63282C-0.099434 1.25929 -0.099434 0.653678 0.298304 0.280148C0.696043 -0.0933826 1.34091 -0.0933826 1.73864 0.280148L7.5 5.69084L13.2614 0.280148C13.6591 -0.0933826 14.304 -0.0933826 14.7017 0.280148C15.0994 0.653678 15.0994 1.25929 14.7017 1.63282Z" fill="#D9D9D6"/>
<path d="M8.22017 7.71985L9.58932 9.17774L8.22017 7.71985ZM6.77983 7.71985L5.41068 9.17774L6.77983 7.71985ZM0.298304 1.63282L-1.07085 3.09071L0.298304 1.63282ZM1.73864 0.280148L3.10779 -1.17774V-1.17774L1.73864 0.280148ZM7.5 5.69084L6.13085 7.14873L7.5 8.43454L8.86915 7.14873L7.5 5.69084ZM9.58932 9.17774L16.0708 3.09071L13.3325 0.174937L6.85102 6.26197L9.58932 9.17774ZM5.41068 9.17774C6.57809 10.2741 8.42192 10.2741 9.58932 9.17774L6.85102 6.26197C7.22295 5.91268 7.77705 5.91268 8.14898 6.26197L5.41068 9.17774ZM-1.07085 3.09071L5.41068 9.17774L8.14898 6.26197L1.66746 0.174937L-1.07085 3.09071ZM-1.07085 -1.17774C-2.30972 -0.0142684 -2.30972 1.92724 -1.07085 3.09071L1.66746 0.174937C2.11085 0.591344 2.11085 1.32163 1.66746 1.73803L-1.07085 -1.17774ZM3.10779 -1.17774C1.94039 -2.27409 0.0965595 -2.27409 -1.07085 -1.17774L1.66746 1.73803C1.29553 2.08732 0.741422 2.08732 0.369493 1.73803L3.10779 -1.17774ZM8.86915 4.23296L3.10779 -1.17774L0.369493 1.73803L6.13085 7.14873L8.86915 4.23296ZM11.8922 -1.17774L6.13085 4.23296L8.86915 7.14873L14.6305 1.73803L11.8922 -1.17774ZM16.0708 -1.17774C14.9034 -2.27409 13.0596 -2.27409 11.8922 -1.17774L14.6305 1.73803C14.2586 2.08732 13.7045 2.08732 13.3325 1.73803L16.0708 -1.17774ZM16.0708 3.09071C17.3097 1.92724 17.3097 -0.0142684 16.0708 -1.17774L13.3325 1.73803C12.8892 1.32163 12.8892 0.591344 13.3325 0.174937L16.0708 3.09071Z" fill="#D9D9D6" mask="url(#path-1-inside-1)"/>
</svg>
