<svg width="31" height="31" viewBox="0 0 31 31" fill="none" xmlns="http://www.w3.org/2000/svg">
<path fill-rule="evenodd" clip-rule="evenodd" d="M15.998 0.00201416C24.2827 0.00201416 30.998 6.71826 30.998 15.002C30.998 23.2867 24.2827 30.002 15.998 30.002C7.71336 30.002 0.998047 23.2867 0.998047 15.002C0.998047 6.71826 7.71336 0.00201416 15.998 0.00201416Z" fill="#720E9E"/>
<path d="M22.8672 11.8425L22.8831 11.8397L23.38 11.2866L23.3556 11.2847L23.4081 11.2022H16.4472L16.7153 12.1547H18.6147L15.4178 15.1125C14.7653 14.161 13.2362 11.9738 12.1694 10.3331H14.1522V9.65814L14.1794 9.46408L14.1522 9.46033V9.38158H6.625V10.3331H8.97906C9.89312 11.0878 13.8559 15.8991 14.0003 16.3585C14.0584 16.7888 14.1409 19.3285 13.9703 19.5197C13.765 19.815 11.6209 19.6556 11.2431 19.6838L11.2291 20.6166C11.9191 20.6372 13.9891 20.6156 14.6875 20.6156C16.0638 20.6156 18.4741 20.58 18.8134 20.6072L18.8556 19.7241L16.0853 19.6828C16.0272 19.2825 15.9634 16.756 16.0216 16.4803C16.2831 15.6806 20.5338 12.3713 20.9706 12.2466L21.3822 12.1538H22.6666L22.8672 11.8425ZM21.8284 18.4435L23.0322 18.5353L24.4356 13.3885C24.2013 13.38 22.0722 13.1897 21.7956 13.1381L21.8284 18.4435ZM21.6203 19.2685L21.6269 20.5256L22.2363 20.5763L22.8944 20.6222L23.0875 19.3922L22.3938 19.3603L21.6203 19.2685Z" fill="white"/>
</svg>
