<svg width="64" height="64" viewBox="0 0 64 64" fill="none" xmlns="http://www.w3.org/2000/svg">
<path d="M49 17C49 16.4477 48.5523 16 48 16L39 16C38.4477 16 38 16.4477 38 17C38 17.5523 38.4477 18 39 18L47 18L47 26C47 26.5523 47.4477 27 48 27C48.5523 27 49 26.5523 49 26L49 17ZM39.7071 26.7071L48.7071 17.7071L47.2929 16.2929L38.2929 25.2929L39.7071 26.7071Z" fill="#97999B"/>
<path d="M48 48C48.5523 48 49 47.5523 49 47L49 38C49 37.4477 48.5523 37 48 37C47.4477 37 47 37.4477 47 38L47 46L39 46C38.4477 46 38 46.4477 38 47C38 47.5523 38.4477 48 39 48L48 48ZM38.2929 38.7071L47.2929 47.7071L48.7071 46.2929L39.7071 37.2929L38.2929 38.7071Z" fill="#97999B"/>
<path d="M18 47C18 47.5523 18.4477 48 19 48H28C28.5523 48 29 47.5523 29 47C29 46.4477 28.5523 46 28 46H20V38C20 37.4477 19.5523 37 19 37C18.4477 37 18 37.4477 18 38V47ZM27.2929 37.2929L18.2929 46.2929L19.7071 47.7071L28.7071 38.7071L27.2929 37.2929Z" fill="#97999B"/>
<path d="M19 16C18.4477 16 18 16.4477 18 17V26C18 26.5523 18.4477 27 19 27C19.5523 27 20 26.5523 20 26V18H28C28.5523 18 29 17.5523 29 17C29 16.4477 28.5523 16 28 16H19ZM28.7071 25.2929L19.7071 16.2929L18.2929 17.7071L27.2929 26.7071L28.7071 25.2929Z" fill="#97999B"/>
</svg>
