<svg width="26" height="26" viewBox="0 0 26 26" fill="none" xmlns="http://www.w3.org/2000/svg">
	<path d="M25.8036 0.266221L25.803 0.265112C25.8013 0.261191 25.7983 0.258293 25.7966 0.25445C25.7773 0.212394 25.7513 0.173772 25.7197 0.140109C25.7092 0.129654 25.6983 0.119746 25.6868 0.110424C25.6597 0.0864963 25.6296 0.0661551 25.5972 0.0498978C25.5839 0.0426472 25.5702 0.0361412 25.5562 0.0304097C25.5083 0.0112151 25.4574 0.000910496 25.4058 0H11.6264C11.5122 3.05881e-05 11.4027 0.0454907 11.322 0.126384L5.72412 5.73378L3 8.5L0.125655 11.342C0.0910503 11.3779 0.062995 11.4196 0.0427636 11.4652C0.0230035 11.5146 0.0104097 11.5666 0.00536536 11.6197C0.00473668 11.629 0 11.6368 0 11.6463V14.2343C0 14.4726 0.192789 14.6657 0.430607 14.6657H3.66016C4.72986 14.6669 5.59672 15.5352 5.59789 16.6067V17.0751L0.126284 22.5561C0.0460084 22.6374 0.000679669 22.7469 0 22.8612V25.4493C0 25.6875 0.192789 25.8806 0.430607 25.8806H14.21C14.2681 25.8806 14.3256 25.8688 14.3789 25.8458C14.3847 25.8434 14.3889 25.838 14.3946 25.8353C14.4403 25.8141 14.482 25.7851 14.5177 25.7496L14.5218 25.7467L23.1266 16.696L25.7103 14.108C25.791 14.0271 25.8364 13.9174 25.8364 13.803V11.2149C25.8364 11.2094 25.8335 11.2048 25.8333 11.1994C25.8325 11.1481 25.8224 11.0975 25.8036 11.0498L25.803 11.0487C25.8013 11.0448 25.7983 11.0419 25.7966 11.038C25.7543 10.9498 25.6842 10.878 25.5972 10.8335C25.5839 10.8263 25.5702 10.8197 25.5562 10.814C25.5083 10.7948 25.4574 10.7845 25.4058 10.7836H22.1763C22.1396 10.786 22.1034 10.7934 22.0686 10.8054C22.0339 10.7934 21.9977 10.786 21.961 10.7836C20.9565 10.7805 20.1216 10.0076 20.0396 9.00473L25.71 3.32467C25.7904 3.24341 25.8358 3.13381 25.8364 3.01941V0.431344C25.8364 0.425814 25.8335 0.421259 25.8333 0.415785C25.8325 0.364547 25.8224 0.313879 25.8036 0.266221ZM24.9752 2.8408L14.6406 13.193V11.8249L24.9752 1.47263V2.8408ZM11.8047 0.862687H24.3663L14.0317 11.2149H1.47012L11.8047 0.862687ZM5.59789 20.4888C5.59672 21.5603 4.72986 22.4287 3.66016 22.4299H1.47012L5.59789 18.295V20.4888ZM0.861214 25.0179V23.2926H3.66016C5.20524 23.2908 6.45732 22.0365 6.45911 20.4888V16.6067C6.45732 15.059 5.20524 13.8048 3.66016 13.803H0.861214V12.0776H13.7794V13.803H10.9805C9.43541 13.8048 8.18332 15.059 8.18153 16.6067V20.4888C8.18332 22.0365 9.43541 23.2908 10.9805 23.2926H13.7794V25.0179H0.861214ZM22.5102 16.0937L14.6406 24.3708V23.0337L23.1266 14.108L24.9752 12.2562V13.6244L22.5102 16.0937ZM21.961 11.6463C21.9977 11.6438 22.0339 11.6365 22.0686 11.6245C22.1034 11.6365 22.1396 11.6438 22.1763 11.6463H24.3663L22.5102 13.5056L14.0254 22.4299H10.9805C9.91079 22.4287 9.04392 21.5603 9.04275 20.4888V16.6067C9.04392 15.5352 9.91079 14.6669 10.9805 14.6657H14.21C14.3242 14.6653 14.4337 14.6199 14.5146 14.5392L19.3101 9.73551C19.6936 10.8757 20.7598 11.6443 21.961 11.6463Z" fill="white"/>
	<path d="M10.4592 20.3764C10.3805 20.459 10.3359 20.5681 10.3343 20.6821C10.3343 20.92 10.5271 21.1128 10.7649 21.1128C11.0027 21.1128 11.1955 20.92 11.1955 20.6821C11.1965 20.5072 11.0916 20.349 10.93 20.282C10.7685 20.2149 10.5824 20.2522 10.4592 20.3764Z" fill="white"/>
	<path d="M12.1754 18.5782L11.7448 19.0294C11.5813 19.2016 11.5881 19.4737 11.7599 19.6376C11.9316 19.8015 12.2037 19.7954 12.368 19.624L12.7986 19.1728C12.9049 19.0615 12.9436 18.902 12.9003 18.7543C12.857 18.6067 12.7382 18.4933 12.5887 18.457C12.4392 18.4207 12.2817 18.4669 12.1754 18.5782Z" fill="white"/>
	<path d="M13.8982 16.771L13.4676 17.2222C13.3034 17.3943 13.3098 17.6669 13.4819 17.8311C13.654 17.9953 13.9266 17.9889 14.0908 17.8168L14.5214 17.3656C14.6856 17.1935 14.6792 16.9208 14.5071 16.7567C14.335 16.5925 14.0624 16.5989 13.8982 16.771Z" fill="white"/>
	<path d="M15.5012 16.1426C15.619 16.1427 15.7316 16.0946 15.8128 16.0093L16.2434 15.5581C16.4076 15.386 16.4012 15.1134 16.2291 14.9492C16.057 14.785 15.7844 14.7914 15.6202 14.9635L15.1896 15.4147C15.0706 15.5394 15.0374 15.723 15.1053 15.8814C15.1731 16.0399 15.3289 16.1426 15.5012 16.1426Z" fill="white"/>
	<path d="M17.2237 14.335C17.3414 14.3352 17.4541 14.287 17.5353 14.2017L17.9659 13.7505C18.0725 13.6392 18.1116 13.4795 18.0684 13.3316C18.0251 13.1836 17.9061 13.0701 17.7563 13.0338C17.6065 12.9976 17.4488 13.0441 17.3427 13.1559L16.9121 13.6071C16.7931 13.7318 16.7599 13.9154 16.8277 14.0739C16.8955 14.2323 17.0513 14.335 17.2237 14.335Z" fill="white"/>
	<path d="M18.9465 12.5291C19.0616 12.5287 19.1717 12.4822 19.2523 12.4C19.3339 12.3212 19.3791 12.212 19.3771 12.0985C19.3763 11.9844 19.3316 11.8749 19.2523 11.7928C19.1291 11.6686 18.943 11.6313 18.7814 11.6983C18.6198 11.7654 18.5149 11.9236 18.5159 12.0985C18.5139 12.212 18.5591 12.3212 18.6408 12.4C18.7214 12.4822 18.8315 12.5287 18.9465 12.5291Z" fill="white"/>
</svg>
