<svg width="16" height="12" viewBox="0 0 16 12" fill="none" xmlns="http://www.w3.org/2000/svg">
<path fill-rule="evenodd" clip-rule="evenodd" d="M7.55077 3.19216L7.58225 3.7112L7.05764 3.64765C5.14805 3.40402 3.47979 2.57779 2.06334 1.19016L1.37085 0.501638L1.19249 1.01008C0.814767 2.14349 1.05609 3.34046 1.843 4.1455C2.26269 4.59039 2.16826 4.65395 1.4443 4.38913C1.19249 4.30439 0.97215 4.24083 0.951166 4.27261C0.87772 4.34676 1.12953 5.31069 1.32889 5.69202C1.60168 6.22165 2.15777 6.74069 2.76632 7.04788L3.28044 7.29151L2.67189 7.3021C2.08433 7.3021 2.06334 7.3127 2.12629 7.53514C2.33614 8.22366 3.16502 8.95455 4.08834 9.27233L4.73886 9.49477L4.17228 9.83374C3.3329 10.321 2.34663 10.5964 1.36036 10.6176C0.888212 10.6282 0.5 10.6706 0.5 10.7023C0.5 10.8083 1.78005 11.4014 2.525 11.6345C4.75984 12.323 7.41437 12.0264 9.4079 10.8506C10.8243 10.0138 12.2408 8.35077 12.9018 6.74069C13.2585 5.88269 13.6153 4.31498 13.6153 3.56291C13.6153 3.07565 13.6468 3.01209 14.2343 2.4295C14.5806 2.09053 14.9058 1.71979 14.9688 1.61386C15.0737 1.4126 15.0632 1.4126 14.5281 1.59268C13.6363 1.91046 13.5104 1.86809 13.951 1.39142C14.2763 1.05245 14.6645 0.438082 14.6645 0.258007C14.6645 0.226229 14.5071 0.279192 14.3287 0.374526C14.1399 0.480452 13.7202 0.639341 13.4054 0.734675L12.8389 0.91475L12.3247 0.565193C12.0414 0.374526 11.6427 0.162673 11.4329 0.0991175C10.8978 -0.0491792 10.0794 -0.0279942 9.59676 0.141488C8.28523 0.618156 7.45634 1.8469 7.55077 3.19216Z" fill="white"/>
</svg>
