<svg width="82" height="70" viewBox="0 0 82 70" fill="none" xmlns="http://www.w3.org/2000/svg">
<g opacity="0.33">
<rect x="2" y="16" width="78" height="53" stroke="white" stroke-width="2" stroke-linejoin="round"/>
<path d="M76.2253 8.77778H81V9H68.1408H66.831V7.77778V3.33333C66.831 2.1313 65.8294 1.22222 64.6761 1.22222H60.0563C58.903 1.22222 57.9014 2.1313 57.9014 3.33333V7.77778V9H56.5915H26.5634H25.2535V7.77778V3.33333C25.2535 2.1313 24.2519 1.22222 23.0986 1.22222H18.4789C17.3255 1.22222 16.3239 2.1313 16.3239 3.33333V7.77778V9H15.0141H1V8.77778H5.77465H15.0141C15.5664 8.77778 16.0141 8.33006 16.0141 7.77778V3.33333C16.0141 2.08077 17.0808 1 18.4789 1H23.0986C24.4967 1 25.5634 2.08077 25.5634 3.33333V7.77778C25.5634 8.33006 26.0111 8.77778 26.5634 8.77778H56.5915C57.1438 8.77778 57.5915 8.33006 57.5915 7.77778V3.33333C57.5915 2.08077 58.6583 1 60.0563 1H64.6761C66.0741 1 67.1408 2.08077 67.1408 3.33333V7.77778C67.1408 8.33006 67.5886 8.77778 68.1408 8.77778H76.2253Z" stroke="white" stroke-width="2" stroke-linecap="round" stroke-linejoin="round"/>
</g>
</svg>
