<svg width="16" height="15" viewBox="0 0 16 15" fill="none" xmlns="http://www.w3.org/2000/svg">
<path d="M8.70711 0.792893C8.31658 0.402369 7.68342 0.402369 7.29289 0.792893L0.928932 7.15685C0.538408 7.54738 0.538408 8.18054 0.928932 8.57107C1.31946 8.96159 1.95262 8.96159 2.34315 8.57107L8 2.91421L13.6569 8.57107C14.0474 8.96159 14.6805 8.96159 15.0711 8.57107C15.4616 8.18054 15.4616 7.54738 15.0711 7.15685L8.70711 0.792893ZM9 2.5V1.5H7V2.5H9Z" fill="#F47F28"/>
<path d="M8.70711 6.79289C8.31658 6.40237 7.68342 6.40237 7.29289 6.79289L0.928932 13.1569C0.538408 13.5474 0.538408 14.1805 0.928932 14.5711C1.31946 14.9616 1.95262 14.9616 2.34315 14.5711L8 8.91421L13.6569 14.5711C14.0474 14.9616 14.6805 14.9616 15.0711 14.5711C15.4616 14.1805 15.4616 13.5474 15.0711 13.1569L8.70711 6.79289ZM9 8.5V7.5H7V8.5H9Z" fill="#F47F28"/>
</svg>
