<svg width="17" height="27" viewBox="0 0 17 27" fill="none" xmlns="http://www.w3.org/2000/svg">
<path d="M8.42674 14.6113C12.4615 14.6113 15.7324 11.3405 15.7324 7.30564C15.7324 3.2708 12.4616 0 8.42674 0C4.3919 0 1.12109 3.27085 1.12109 7.30569C1.12605 11.3384 4.394 14.6064 8.42674 14.6113ZM8.42674 3.37185C10.5993 3.37185 12.3606 5.13306 12.3606 7.30569C12.3606 9.47832 10.5994 11.2395 8.42674 11.2395C6.25411 11.2395 4.49289 9.47832 4.49289 7.30569C4.49289 5.13306 6.25416 3.37185 8.42674 3.37185Z" fill="#F8F8F8"/>
<path d="M15.586 18.0732C16.3799 17.5503 16.8583 16.6636 16.8594 15.7129C16.8705 14.9239 16.4252 14.1994 15.7164 13.8528C14.988 13.489 14.1162 13.5709 13.4684 14.0641C10.4663 16.2528 6.3944 16.2528 3.39224 14.0641C2.74348 13.5735 1.87317 13.4917 1.14432 13.8528C0.435761 14.1993 -0.00969199 14.9231 0.000160133 15.7118C0.00184606 16.6623 0.48007 17.5487 1.27361 18.0721C2.2917 18.7491 3.40041 19.2789 4.5668 19.6456C4.76464 19.707 4.96879 19.764 5.17938 19.8165L1.78282 23.1377C0.891804 24.0023 0.870256 25.4253 1.73477 26.3164C2.59928 27.2074 4.02236 27.229 4.91342 26.3645C4.93197 26.3464 4.9502 26.3282 4.96811 26.3095L8.42989 22.7263L11.8984 26.3162C12.7622 27.2079 14.1853 27.2306 15.077 26.3668C15.9687 25.503 15.9914 24.0799 15.1276 23.1882C15.1095 23.1696 15.0911 23.1512 15.0724 23.1332L11.6815 19.8153C11.892 19.7614 12.0969 19.704 12.2962 19.6434C13.4614 19.278 14.569 18.7494 15.586 18.0732Z" fill="#F8F8F8"/>
</svg>
