<svg version="1.1" id="Layer_1" xmlns="http://www.w3.org/2000/svg" xmlns:xlink="http://www.w3.org/1999/xlink" x="0px" y="0px"
	 width="14px" height="14px" viewBox="0 0 14 14" enable-background="new 0 0 14 14" xml:space="preserve">
<path fill="#97999B" d="M11.375,0h-8.75C1.175,0,0,1.175,0,2.625v8.75C0,12.824,1.175,14,2.625,14h4.849V8.577H5.651V6.462h1.823
	V4.904c0-1.805,1.112-2.79,2.725-2.79c0.766,0,1.431,0.055,1.623,0.083v1.886l-1.112,0.01c-0.884,0-1.049,0.41-1.049,1.02v1.35
	h2.088l-0.274,2.114H9.661V14h1.714C12.824,14,14,12.824,14,11.375v-8.75C14,1.175,12.824,0,11.375,0z"/>
</svg>
