<svg width="34" height="19" viewBox="0 0 34 19" fill="none" xmlns="http://www.w3.org/2000/svg">
<path d="M29.2618 12.0811C30.3896 13.1685 31.5799 14.1915 32.5915 15.3885C33.0383 15.9204 33.4613 16.4693 33.785 17.0866C34.2436 17.9641 33.8282 18.9298 33.0314 18.9822L28.0782 18.98C26.8007 19.0846 25.7816 18.5768 24.9246 17.7142C24.2389 17.0244 23.6038 16.2903 22.9443 15.5773C22.674 15.2859 22.3911 15.0116 22.053 14.7948C21.3769 14.3614 20.7899 14.4941 20.4035 15.1905C20.01 15.8988 19.9207 16.6831 19.882 17.4725C19.829 18.6243 19.4764 18.9271 18.3048 18.9798C15.801 19.0964 13.4247 18.7224 11.2172 17.4751C9.27094 16.3755 7.7618 14.8232 6.44815 13.0658C3.89065 9.64391 1.93201 5.88371 0.171714 2.0182C-0.224531 1.1473 0.0652647 0.679816 1.03838 0.663225C2.65424 0.632208 4.2699 0.634438 5.88768 0.660996C6.54444 0.670504 6.9792 1.04245 7.2328 1.65511C8.10704 3.77784 9.17678 5.79742 10.5195 7.66939C10.8771 8.16776 11.2417 8.66619 11.7609 9.01695C12.3353 9.40535 12.7727 9.27663 13.0429 8.64475C13.2143 8.24409 13.2894 7.81254 13.3281 7.38348C13.4561 5.90719 13.473 4.43339 13.2485 2.96228C13.1106 2.04417 12.5869 1.4498 11.6592 1.27609C11.1858 1.1875 11.2562 1.01353 11.4854 0.746702C11.8836 0.286497 12.258 0 13.0045 0H18.6024C19.4837 0.171741 19.6794 0.562699 19.8 1.43832L19.8048 7.57856C19.7952 7.91752 19.9763 8.92351 20.5946 9.14784C21.0894 9.30758 21.4156 8.91662 21.7126 8.60678C23.0529 7.2021 24.0094 5.542 24.864 3.82302C25.2433 3.06714 25.5694 2.28221 25.8854 1.49786C26.1196 0.915885 26.487 0.62952 27.1508 0.642176L32.5385 0.646897C32.6983 0.646897 32.8599 0.649192 33.0146 0.675357C33.9225 0.828146 34.1713 1.21379 33.8909 2.08922C33.4491 3.46269 32.5894 4.6073 31.7489 5.75715C30.8505 6.98478 29.8895 8.17044 28.9985 9.40535C28.1799 10.5332 28.2449 11.1016 29.2618 12.0811Z" fill="white"/>
</svg>
