<svg width="48" height="48" viewBox="0 0 48 48" fill="none" xmlns="http://www.w3.org/2000/svg">
<path d="M43.567 42.2932C45.6144 40.1936 45.6144 37.394 43.567 35.3482L37.9637 29.7491C36.9939 28.7262 35.8086 28.1879 34.5156 28.1879C33.2764 28.1879 32.0911 28.7262 31.0674 29.7491L27.8347 32.9794C27.5653 32.8178 27.2959 32.7102 27.0265 32.5487C26.6494 32.3872 26.3261 32.1718 26.0029 32.0103C22.9857 30.126 20.2379 27.5956 17.6518 24.4192C16.3587 22.8041 15.4967 21.4582 14.904 20.0584C15.7122 19.3047 16.5204 18.4972 17.2747 17.7434C17.544 17.4743 17.8673 17.1512 18.1367 16.882C19.1604 15.8591 19.753 14.6209 19.753 13.3826C19.753 12.1444 19.2143 10.96 18.1367 9.88321L15.3889 7.08367C15.0657 6.76065 14.7424 6.43763 14.473 6.1146C13.8804 5.46856 13.2338 4.82251 12.5873 4.2303C11.6175 3.26123 10.4322 2.72286 9.19298 2.72286C7.95379 2.72286 6.76848 3.26123 5.7448 4.2303L2.24274 7.72972C0.949676 9.02181 0.195386 10.5831 0.0337524 12.4136C-0.181759 15.3746 0.680286 18.1203 1.32682 19.9508C2.94315 24.3654 5.42153 28.5109 9.08523 32.9255C13.5571 38.2554 18.891 42.4009 24.9792 45.3619C27.2959 46.4925 30.4208 47.7846 33.9229 47.9999C34.1384 47.9999 34.3539 47.9999 34.5694 47.9999C36.8862 47.9999 38.8797 47.1385 40.3882 45.4696L40.4421 45.4158C40.9809 44.7697 41.5736 44.1775 42.2201 43.5853C42.705 43.2084 43.136 42.7777 43.567 42.2932ZM40.3882 41.701C39.7417 42.347 39.0413 42.9931 38.4486 43.7468C37.425 44.8774 36.1858 45.3619 34.6233 45.3619C34.4617 45.3619 34.3 45.3619 34.1384 45.3619C31.1213 45.0927 28.3196 43.9622 26.1645 42.9392C20.3996 40.1397 15.3889 36.2096 11.1865 31.2027C7.73828 27.0573 5.42153 23.181 3.85908 19.0355C2.88928 16.5052 2.56601 14.5132 2.72764 12.6827C2.8354 11.4983 3.3203 10.5293 4.12847 9.66786L7.57665 6.22228C8.06155 5.73774 8.60033 5.46856 9.1391 5.46856C9.78564 5.46856 10.3244 5.84542 10.7016 6.22228C11.3481 6.81449 11.8869 7.4067 12.5334 8.05274C12.8567 8.37577 13.1799 8.69879 13.5032 9.02181L16.251 11.7675C16.7898 12.3059 17.0591 12.8443 17.0591 13.3826C17.0591 13.921 16.7898 14.4594 16.251 14.9977C15.9816 15.2669 15.6583 15.59 15.3889 15.8591C14.5269 16.7205 13.7187 17.5281 12.8567 18.3356L12.8028 18.3895C11.9408 19.2509 12.1024 20.1123 12.264 20.6506C12.264 20.7045 12.264 20.7045 12.3179 20.7583C13.0183 22.4811 14.042 24.1501 15.6044 26.0882C18.4061 29.5338 21.3694 32.2256 24.602 34.2715C25.0331 34.5406 25.4641 34.756 25.8412 34.9713C26.2184 35.1329 26.5416 35.3482 26.8649 35.5097C26.9188 35.5097 26.9188 35.5635 26.9727 35.5635C27.2959 35.7251 27.6192 35.8327 27.9425 35.8327C28.7506 35.8327 29.2894 35.2944 29.451 35.1329L32.9531 31.6334C33.2764 31.3104 33.869 30.8797 34.5156 30.8797C35.1621 30.8797 35.647 31.3104 36.0241 31.6334L41.6274 37.2325C42.9205 38.5246 42.3278 39.709 41.5735 40.4627C41.2503 40.8934 40.8193 41.2703 40.3882 41.701ZM24.8714 9.77553C24.9792 9.02181 25.6796 8.53728 26.4339 8.69879C29.6666 9.23716 32.576 10.7446 34.8927 13.1134C37.2094 15.4823 38.718 18.3895 39.3107 21.5659C39.4184 22.3196 38.9335 23.0195 38.2331 23.1272C38.1792 23.1272 38.0715 23.1272 38.0176 23.1272C37.3711 23.1272 36.7784 22.6426 36.6707 21.9966C36.2396 19.3586 34.9466 16.882 33.007 14.9977C31.0674 13.0596 28.6429 11.8213 26.0029 11.3368C25.1947 11.2291 24.7098 10.5293 24.8714 9.77553ZM45.345 21.6197C44.5368 16.882 42.274 12.5751 38.8797 9.12949C35.4315 5.68391 31.1213 3.47658 26.38 2.66902C25.6257 2.56135 25.1408 1.86147 25.3025 1.10775C25.4641 0.354025 26.1106 -0.13051 26.8649 0.0310019C32.0911 0.892397 36.9401 3.36891 40.7654 7.19135C44.5907 11.0138 47.123 15.8591 47.985 21.1352C48.0928 21.8889 47.6079 22.5888 46.9075 22.6965C46.8536 22.6965 46.7458 22.6965 46.6919 22.6965C46.0454 22.7503 45.4528 22.2658 45.345 21.6197Z" fill="url(#paint0_linear)"/>
<defs>
<linearGradient id="paint0_linear" x1="-1.04032e-06" y1="47.9999" x2="42.5472" y2="21.7694" gradientUnits="userSpaceOnUse">
<stop stop-color="#F47F28"/>
<stop offset="1" stop-color="#FBB53B"/>
</linearGradient>
</defs>
</svg>
