<svg width="48" height="48" viewBox="0 0 48 48" fill="none" xmlns="http://www.w3.org/2000/svg">
<path fill-rule="evenodd" clip-rule="evenodd" d="M41.0016 19.6409H19.7016L19.9016 18.4384C20.0923 17.4829 20.2138 16.5123 20.2673 15.5324H14.3008V36.977H46.0008V15.5324H41.5092C41.4541 16.6463 41.3188 17.751 41.1016 18.8392L41.0016 19.6409ZM16.5016 1.50313C18.8415 5.34017 20.1256 9.47952 20.2825 13.5282H12.3008V38.9812H32.4414C32.362 39.0503 32.2817 39.1173 32.2014 39.1816C31.4014 39.7829 30.6014 40.4843 30.2014 41.6868C30.1439 41.9752 30.0532 42.2304 29.9675 42.4715C29.9043 42.6493 29.8439 42.8194 29.8014 42.9896C29.7642 43.1015 29.7131 43.2273 29.6585 43.3618C29.5664 43.5886 29.4642 43.8402 29.4014 44.0919C29.0014 45.1942 28.5014 45.8956 27.9014 45.9958C27.2014 46.096 26.4014 45.6952 25.5014 45.1942C25.4121 45.1494 25.3212 45.1031 25.2287 45.0559C24.2855 44.575 23.1764 44.0095 21.9014 44.1921C21.3014 44.2923 20.7014 44.4927 20.2014 44.6931C19.6014 44.9937 19.1014 45.1942 18.4014 45.1942C17.3014 45.1942 16.8014 45.0939 16.0014 44.1921C15.9014 43.9917 15.7015 43.7913 15.5015 43.5909L15.5014 43.5908C15.4095 43.4987 15.3175 43.4031 15.2242 43.306C14.6072 42.6645 13.9307 41.9611 12.8014 41.7871C12.0504 41.6198 11.3691 41.8712 10.8154 42.0755C10.7056 42.116 10.6008 42.1547 10.5014 42.1879C10.1014 42.3883 9.80142 42.4885 9.50142 42.4885C8.90142 42.4885 8.70142 42.2881 8.60142 42.1879C8.10142 41.5866 8.20142 39.8831 8.40142 38.1795L8.43065 37.916C10.4086 37.2515 11.8 35.4004 11.8 33.169V13.4279C11.8 10.622 9.6 8.41744 6.8 8.41744H5C2.2 8.41744 0 10.622 0 13.4279V33.169C0 35.9748 2.2 38.1794 5 38.1794H6.27417C6.08588 40.265 5.95162 42.1471 7.00142 43.3904C7.50142 43.9916 8.30142 44.3925 9.40142 44.3925C10.1014 44.3925 10.7014 44.1921 11.2014 43.9916C11.3532 43.941 11.4857 43.8903 11.6056 43.8444C11.9596 43.7091 12.2026 43.6162 12.5014 43.691C13.0014 43.7912 13.4014 44.1921 14.0014 44.8935L14.6014 45.4948C15.8014 46.7975 16.9014 47.0981 18.4014 47.0981C19.5014 47.0981 20.3014 46.7975 21.0014 46.4969C21.5014 46.2965 21.9014 46.1962 22.3014 46.096C23.0857 45.9978 23.7738 46.3811 24.6485 46.8682L24.7014 46.8977C24.754 46.927 24.8069 46.9566 24.8602 46.9864C25.719 47.4669 26.6715 48 27.8014 48H28.4014C29.6014 47.7996 30.7014 46.6973 31.4014 44.8935C31.459 44.6051 31.5497 44.35 31.6353 44.1089C31.6985 43.9311 31.759 43.7609 31.8014 43.5908C31.9014 43.19 32.0014 42.7891 32.2014 42.3883C32.3554 41.8482 32.7465 41.4864 33.1922 41.074C33.3254 40.9508 33.4634 40.8231 33.6014 40.6848C33.7005 40.5855 33.8023 40.4862 33.9051 40.386C34.3442 39.9577 34.8003 39.5129 35.1325 38.9812H48.0008V13.5282H41.5227C41.3661 9.11932 39.9897 4.63293 37.5016 0.501044L37.2016 0H15.6016L16.5016 1.50313ZM22.1016 17.6367H39.4016C40.1016 12.5261 39.0016 7.01461 36.1016 2.00418H19.1016C21.7016 7.01461 22.8016 12.5261 22.1016 17.6367ZM2 13.4279C2 11.7243 3.3 10.4216 5 10.4216H6.8C8.5 10.4216 9.8 11.7243 9.8 13.4279V33.169C9.8 34.8726 8.5 36.1753 6.8 36.1753H5C3.3 36.1753 2 34.8726 2 33.169V13.4279ZM19.6016 23.5491H22.8016V25.5532H19.6016V23.5491ZM28.0984 23.5491H24.8984V25.5532H28.0984V23.5491ZM30.3008 23.5491H33.5008V25.5532H30.3008V23.5491ZM35.6016 23.5491V25.5532H38.8016V23.5491H35.6016ZM19.6016 27.7578H22.8016V29.762H19.6016V27.7578ZM28.0984 27.7578H24.8984V29.762H28.0984V27.7578ZM30.3008 27.7578H33.5008V29.762H30.3008V27.7578ZM35.6016 27.7578V29.762H38.8016V27.7578H35.6016ZM19.6016 31.8664H22.8016V33.8706H19.6016V31.8664ZM28.0984 31.8664H24.8984V33.8706H28.0984V31.8664ZM30.3008 31.8664H33.5008V33.8706H30.3008V31.8664ZM35.6016 31.8664V33.8706H38.8016V31.8664H35.6016ZM41.8008 25.3529H43.8008V32.8685H41.8008V25.3529ZM35.3016 3.90804H22.1016V5.91222H35.3016V3.90804ZM24 8.51775H37.2V10.5219H24V8.51775ZM37.4984 13.1274H24.3984V15.1316H37.4984V13.1274Z" fill="url(#paint0_linear)"/>
<defs>
<linearGradient id="paint0_linear" x1="-1.04034e-06" y1="48" x2="42.5475" y2="21.7688" gradientUnits="userSpaceOnUse">
<stop stop-color="#F47F28"/>
<stop offset="1" stop-color="#FBB53B"/>
</linearGradient>
</defs>
</svg>
