<svg width="85" height="85" viewBox="0 0 85 85" fill="none" xmlns="http://www.w3.org/2000/svg">
<path d="M69.6543 28.6747L84.7823 13.3133V2.61145V0L40.3777 0.665663H39.7791L0 38.1988V50.5392H19.3726V54.2259L0 72.6596V85H47.8329L84.7823 47.9789V34.5633H69.6543V28.6747ZM40.9219 3.1747L82.1703 2.66265L46.6357 38.1988H3.86364L40.9219 3.1747ZM19.1549 57.8614V72.6596H3.91805L19.1549 57.8614ZM82.0615 46.9548L46.6357 82.4398H2.72087V75.2199H22.0935V47.9789H2.72087V40.9639H47.8329L82.0615 6.65663V12.494L46.6357 47.9789H30.5826V75.2199H47.8329L82.0615 40.9639V46.9548ZM82.0615 37.1235L46.6357 72.6596H33.3035V50.5392H47.8329L66.9334 31.3886V37.1235H82.0615Z" fill="#F58635"/>
</svg>
