<svg version="1.1" id="Layer_1" xmlns="http://www.w3.org/2000/svg" xmlns:xlink="http://www.w3.org/1999/xlink" x="0px" y="0px"
	 width="14.688px" height="21.999px" viewBox="0 0.001 14.688 21.999" enable-background="new 0 0.001 14.688 21.999"
	 xml:space="preserve">
<path fill="#867450" d="M9.494,22c-1.379,0-2.7-0.548-3.673-1.523c-0.976-0.974-1.523-2.295-1.523-3.674L4.16,7.274
	c0.032-1.721,1.453-3.09,3.174-3.059c1.677,0.031,3.03,1.385,3.058,3.063l0.14,9.527c0.024,0.574-0.421,1.059-0.993,1.083
	c-0.574,0.024-1.059-0.421-1.083-0.993c-0.001-0.031-0.001-0.061,0-0.092l-0.14-9.53C8.287,6.699,7.798,6.259,7.224,6.289
	C6.693,6.316,6.27,6.74,6.24,7.27l0.132,9.535c0.001,1.723,1.4,3.118,3.123,3.116c1.724-0.001,3.118-1.399,3.116-3.123L12.473,7.27
	c-0.057-2.869-2.429-5.149-5.297-5.093C4.385,2.231,2.137,4.48,2.082,7.27L2.101,16c0,0.573-0.464,1.039-1.037,1.039
	s-1.039-0.464-1.039-1.037V16L0,7.274C0,3.257,3.258,0,7.275,0.001c4.016,0,7.272,3.256,7.273,7.273l0.14,9.531
	c0.001,1.377-0.547,2.697-1.521,3.67c-0.974,0.975-2.295,1.523-3.674,1.522L9.494,22z"/>
</svg>
